<?xml version="1.0" encoding="UTF-8"?>
<!DOCTYPE svg PUBLIC "-//W3C//DTD SVG 1.1//EN" "http://www.w3.org/Graphics/SVG/1.1/DTD/svg11.dtd">
<svg xmlns="http://www.w3.org/2000/svg" version="1.1" width="234px" height="219px" style="shape-rendering:geometricPrecision; text-rendering:geometricPrecision; image-rendering:optimizeQuality; fill-rule:evenodd; clip-rule:evenodd" xmlns:xlink="http://www.w3.org/1999/xlink">
<g><path style="opacity:0.792" fill="#a7a7a9" d="M 116.5,3.5 C 116.027,4.90632 115.027,5.57298 113.5,5.5C 113.973,4.09368 114.973,3.42702 116.5,3.5 Z"/></g>
<g><path style="opacity:1" fill="#5d5d60" d="M 113.5,5.5 C 112.91,6.76597 112.41,8.0993 112,9.5C 110.644,8.61983 109.144,8.28649 107.5,8.5C 109.181,6.99249 111.181,5.99249 113.5,5.5 Z"/></g>
<g><path style="opacity:1" fill="#1c1c1c" d="M 129.5,8.5 C 131.403,8.79586 133.07,9.46253 134.5,10.5C 136.438,12.1628 138.772,12.8294 141.5,12.5C 157.759,16.0722 174.092,16.4055 190.5,13.5C 191.167,13.5 191.833,13.5 192.5,13.5C 192.5,51.8333 192.5,90.1667 192.5,128.5C 192.62,134.729 190.62,140.062 186.5,144.5C 184.241,145.344 183.241,147.011 183.5,149.5C 183.5,150.167 183.167,150.5 182.5,150.5C 181.833,150.833 181.167,151.167 180.5,151.5C 179.25,151.577 178.417,152.244 178,153.5C 176.284,152.448 175.284,153.114 175,155.5C 174.25,154.874 173.416,154.374 172.5,154C 173.823,153.184 174.489,152.017 174.5,150.5C 175.167,149.167 176.167,148.167 177.5,147.5C 179.262,146.738 180.262,145.404 180.5,143.5C 183.497,137.842 185.497,131.842 186.5,125.5C 187.309,123.708 187.809,121.708 188,119.5C 188.5,86.1683 188.667,52.835 188.5,19.5C 187.209,19.2627 186.209,19.596 185.5,20.5C 174.136,23.131 162.803,23.131 151.5,20.5C 148.781,19.087 145.781,18.4203 142.5,18.5C 142.167,18.5 141.833,18.5 141.5,18.5C 139.562,16.8372 137.228,16.1706 134.5,16.5C 133.22,15.0687 131.553,14.4021 129.5,14.5C 126.984,13.195 125.65,11.3617 125.5,9C 126.793,8.50999 128.127,8.34332 129.5,8.5 Z"/></g>
<g><path style="opacity:0.678" fill="#b2b2b2" d="M 134.5,10.5 C 137.067,10.7215 139.401,11.3882 141.5,12.5C 138.772,12.8294 136.438,12.1628 134.5,10.5 Z"/></g>
<g><path style="opacity:0.047" fill="#fbfbfb" d="M 193.5,13.5 C 193.167,13.5 192.833,13.5 192.5,13.5C 191.833,13.5 191.167,13.5 190.5,13.5C 191.5,10.8333 192.5,10.8333 193.5,13.5 Z"/></g>
<g><path style="opacity:0.91" fill="#9d9d9d" d="M 97.5,11.5 C 95.1617,13.0395 92.4951,13.7062 89.5,13.5C 91.9052,12.2318 94.5718,11.5651 97.5,11.5 Z"/></g>
<g><path style="opacity:0.999" fill="#303130" d="M 129.5,8.5 C 128.127,8.34332 126.793,8.50999 125.5,9C 125.65,11.3617 126.984,13.195 129.5,14.5C 125.851,13.1721 122.185,11.8388 118.5,10.5C 116.238,11.4669 113.905,12.1336 111.5,12.5C 108.843,12.9348 106.509,13.9348 104.5,15.5C 102.901,15.2322 101.568,15.5655 100.5,16.5C 99.791,17.404 98.791,17.7373 97.5,17.5C 94.2186,17.4203 91.2186,18.087 88.5,19.5C 76.4148,22.412 64.0815,23.0787 51.5,21.5C 49.7354,20.5386 47.7354,20.2053 45.5,20.5C 43.955,19.7703 43.1216,18.437 43,16.5C 42.3292,15.7476 41.4959,15.4142 40.5,15.5C 40.3284,14.5084 40.6618,13.8417 41.5,13.5C 57.4925,16.1117 73.4925,16.1117 89.5,13.5C 92.4951,13.7062 95.1617,13.0395 97.5,11.5C 100.704,10.0991 104.037,9.0991 107.5,8.5C 109.144,8.28649 110.644,8.61983 112,9.5C 112.41,8.0993 112.91,6.76597 113.5,5.5C 115.027,5.57298 116.027,4.90632 116.5,3.5C 117.601,2.40168 118.934,2.23502 120.5,3C 123.564,4.8588 126.564,6.69213 129.5,8.5 Z"/></g>
<g><path style="opacity:0.239" fill="#dad9d9" d="M 111.5,12.5 C 109.68,14.4484 107.346,15.4484 104.5,15.5C 106.509,13.9348 108.843,12.9348 111.5,12.5 Z"/></g>
<g><path style="opacity:0.024" fill="#e4e4e4" d="M 100.5,16.5 C 101.568,15.5655 102.901,15.2322 104.5,15.5C 103.335,17.1094 102.001,17.4427 100.5,16.5 Z"/></g>
<g><path style="opacity:0.18" fill="#e3e4e2" d="M 129.5,14.5 C 131.553,14.4021 133.22,15.0687 134.5,16.5C 132.447,16.5979 130.78,15.9313 129.5,14.5 Z"/></g>
<g><path style="opacity:0.945" fill="#939691" d="M 134.5,16.5 C 137.228,16.1706 139.562,16.8372 141.5,18.5C 138.933,18.2785 136.599,17.6118 134.5,16.5 Z"/></g>
<g><path style="opacity:0.157" fill="#d1d1cf" d="M 97.5,17.5 C 94.7814,18.913 91.7814,19.5797 88.5,19.5C 91.2186,18.087 94.2186,17.4203 97.5,17.5 Z"/></g>
<g><path style="opacity:0.639" fill="#b5b7b6" d="M 142.5,18.5 C 145.781,18.4203 148.781,19.087 151.5,20.5C 148.219,20.5797 145.219,19.913 142.5,18.5 Z"/></g>
<g><path style="opacity:0.045" fill="#f8f4f0" d="M 136.5,24.5 C 130.072,23.3504 123.906,21.3504 118,18.5C 106.425,23.8577 94.2579,26.8577 81.5,27.5C 81.8417,26.6618 82.5084,26.3284 83.5,26.5C 95.6079,25.2647 107.108,21.9313 118,16.5C 124.226,19.2883 130.393,21.955 136.5,24.5 Z"/></g>
<g><path style="opacity:1" fill="#bbab96" d="M 149.5,23.5 C 146.482,23.3354 143.482,23.502 140.5,24C 144.427,24.7244 148.094,25.891 151.5,27.5C 146.206,27.3747 141.206,26.3747 136.5,24.5C 130.393,21.955 124.226,19.2883 118,16.5C 107.108,21.9313 95.6079,25.2647 83.5,26.5C 81.7354,25.5386 79.7354,25.2053 77.5,25.5C 77.5,25.1667 77.5,24.8333 77.5,24.5C 91.8409,22.8311 105.508,18.8311 118.5,12.5C 128.468,17.6725 138.802,21.3391 149.5,23.5 Z"/></g>
<g><path style="opacity:0.093" fill="#eaeaea" d="M 41.5,13.5 C 40.6618,13.8417 40.3284,14.5084 40.5,15.5C 40.5,52.8333 40.5,90.1667 40.5,127.5C 39.1695,89.3312 39.1695,50.9979 40.5,12.5C 41.1067,12.6236 41.44,12.9569 41.5,13.5 Z"/></g>
<g><path style="opacity:0.722" fill="#b0b0af" d="M 152.5,32.5 C 154.364,31.2072 156.364,31.2072 158.5,32.5C 157.68,34.1112 156.346,34.7778 154.5,34.5C 154.918,33.7784 155.584,33.2784 156.5,33C 155.207,32.51 153.873,32.3433 152.5,32.5 Z"/></g>
<g><path style="opacity:1" fill="#161616" d="M 151.5,32.5 C 151.833,32.5 152.167,32.5 152.5,32.5C 153.873,32.3433 155.207,32.51 156.5,33C 155.584,33.2784 154.918,33.7784 154.5,34.5C 152.821,34.7148 151.821,34.0481 151.5,32.5 Z"/></g>
<g><path style="opacity:1" fill="#7c7c7c" d="M 151.5,32.5 C 151.821,34.0481 152.821,34.7148 154.5,34.5C 153.833,35.8333 152.833,36.8333 151.5,37.5C 151.306,35.0882 149.973,34.0882 147.5,34.5C 148.514,33.3263 149.847,32.6596 151.5,32.5 Z"/></g>
<g><path style="opacity:0.945" fill="#8f8f91" d="M 145.5,35.5 C 144.01,37.2798 142.01,37.9465 139.5,37.5C 141.302,36.5418 143.302,35.8751 145.5,35.5 Z"/></g>
<g><path style="opacity:1" fill="#0e0f0f" d="M 147.5,34.5 C 149.973,34.0882 151.306,35.0882 151.5,37.5C 151.5,38.1667 151.167,38.5 150.5,38.5C 149.094,38.9731 148.427,39.9731 148.5,41.5C 147.698,42.9516 147.198,44.6183 147,46.5C 146.333,76.5 146.333,106.5 147,136.5C 147.278,137.416 147.778,138.082 148.5,138.5C 149.167,138.5 149.5,138.833 149.5,139.5C 149.973,140.906 150.973,141.573 152.5,141.5C 152.833,141.5 153.167,141.5 153.5,141.5C 154.66,143.203 153.993,143.869 151.5,143.5C 145.833,143.5 140.167,143.5 134.5,143.5C 133.127,143.657 131.793,143.49 130.5,143C 131.056,142.617 131.389,142.117 131.5,141.5C 133.027,141.573 134.027,140.906 134.5,139.5C 135.906,139.027 136.573,138.027 136.5,136.5C 136.796,134.597 137.463,132.93 138.5,131.5C 139.496,117.677 139.829,103.677 139.5,89.5C 126.833,89.5 114.167,89.5 101.5,89.5C 101.5,88.5 101.5,87.5 101.5,86.5C 113.789,84.5197 126.456,83.853 139.5,84.5C 139.828,72.6547 139.495,60.988 138.5,49.5C 137.662,49.1583 137.328,48.4916 137.5,47.5C 137.5,45.5 136.5,44.5 134.5,44.5C 133.713,42.8958 132.38,42.2291 130.5,42.5C 128.156,42.0603 126.156,41.0603 124.5,39.5C 129.32,38.5135 134.32,37.8468 139.5,37.5C 142.01,37.9465 144.01,37.2798 145.5,35.5C 145.842,34.6618 146.508,34.3284 147.5,34.5 Z"/></g>
<g><path style="opacity:0.659" fill="#c0c0bf" d="M 74.5,37.5 C 73.4863,38.6737 72.153,39.3404 70.5,39.5C 71.287,37.8958 72.6203,37.2291 74.5,37.5 Z"/></g>
<g><path style="opacity:0.202" fill="#f9f6f2" d="M 77.5,24.5 C 77.5,24.8333 77.5,25.1667 77.5,25.5C 68.1667,25.5 58.8333,25.5 49.5,25.5C 49.5,58.8333 49.5,92.1667 49.5,125.5C 48.3358,92.0025 48.1691,58.3358 49,24.5C 58.3879,24.3657 67.8879,24.3657 77.5,24.5 Z"/></g>
<g><path style="opacity:0.02" fill="#e0e0e0" d="M 150.5,38.5 C 150.573,40.0269 149.906,41.0269 148.5,41.5C 148.427,39.9731 149.094,38.9731 150.5,38.5 Z"/></g>
<g><path style="opacity:0.592" fill="#a3a2a0" d="M 56.5,39.5 C 56.5569,40.609 56.8902,41.609 57.5,42.5C 55.4482,41.9473 55.1148,40.9473 56.5,39.5 Z"/></g>
<g><path style="opacity:0.786" fill="#848484" d="M 124.5,39.5 C 126.156,41.0603 128.156,42.0603 130.5,42.5C 128.167,42.5 125.833,42.5 123.5,42.5C 123.263,41.209 123.596,40.209 124.5,39.5 Z"/></g>
<g><path style="opacity:0.145" fill="#efefef" d="M 130.5,42.5 C 132.38,42.2291 133.713,42.8958 134.5,44.5C 132.847,44.3404 131.514,43.6737 130.5,42.5 Z"/></g>
<g><path style="opacity:0.635" fill="#c0c0c0" d="M 134.5,44.5 C 136.5,44.5 137.5,45.5 137.5,47.5C 136.167,46.8333 135.167,45.8333 134.5,44.5 Z"/></g>
<g><path style="opacity:0.906" fill="#ddd1c8" d="M 203.5,48.5 C 202.85,48.1961 202.183,47.8627 201.5,47.5C 200.286,49.8587 200.286,52.192 201.5,54.5C 200.414,54.38 199.747,53.7133 199.5,52.5C 197.906,49.5567 198.239,46.8901 200.5,44.5C 202.288,45.2826 203.288,46.6159 203.5,48.5 Z"/></g>
<g><path style="opacity:1" fill="#b7987c" d="M 203.5,48.5 C 204.15,50.4352 204.483,52.4352 204.5,54.5C 203.5,54.5 202.5,54.5 201.5,54.5C 200.286,52.192 200.286,49.8587 201.5,47.5C 202.183,47.8627 202.85,48.1961 203.5,48.5 Z"/></g>
<g><path style="opacity:0.033" fill="#fbf8f4" d="M 203.5,48.5 C 204.79,49.0577 205.623,50.0577 206,51.5C 207.27,49.4215 208.77,49.0882 210.5,50.5C 208.246,51.4151 206.246,52.7484 204.5,54.5C 204.483,52.4352 204.15,50.4352 203.5,48.5 Z"/></g>
<g><path style="opacity:0.363" fill="#f3efea" d="M 149.5,23.5 C 161.09,24.433 172.59,24.7664 184,24.5C 184.831,57.0026 184.664,89.3359 183.5,121.5C 183.5,89.5 183.5,57.5 183.5,25.5C 173.828,25.6665 164.161,25.4998 154.5,25C 152.618,24.8019 150.952,24.3019 149.5,23.5 Z"/></g>
<g><path style="opacity:1" fill="#b6916a" d="M 210.5,50.5 C 211.338,50.8417 211.672,51.5084 211.5,52.5C 212.034,57.9007 210.867,62.9007 208,67.5C 205.91,63.4006 204.744,59.0672 204.5,54.5C 206.246,52.7484 208.246,51.4151 210.5,50.5 Z"/></g>
<g><path style="opacity:0.429" fill="#efe7df" d="M 152.5,27.5 C 162.083,27.1816 171.583,27.5149 181,28.5C 181.83,58.0029 181.664,87.3362 180.5,116.5C 180.465,87.739 180.465,59.0723 180.5,30.5C 171.26,30.0581 161.927,29.0581 152.5,27.5 Z"/></g>
<g><path style="opacity:1" fill="#a79073" d="M 37.5,59.5 C 37.5,59.8333 37.5,60.1667 37.5,60.5C 36.6036,64.5663 34.1036,67.2329 30,68.5C 29.5,68.1667 29,67.8333 28.5,67.5C 29.5133,65.4734 30.5133,63.4734 31.5,61.5C 33.3146,60.3702 35.3146,59.7036 37.5,59.5 Z"/></g>
<g><path style="opacity:0.046" fill="#f5f1ee" d="M 211.5,52.5 C 212.21,54.8927 212.877,57.3927 213.5,60C 213.167,60.3333 212.833,60.6667 212.5,61C 215.447,61.1118 216.78,62.6118 216.5,65.5C 215.844,64.7222 215.011,64.0556 214,63.5C 213.5,63.8333 213,64.1667 212.5,64.5C 212.067,67.4764 211.067,70.1431 209.5,72.5C 208.5,71.8333 207.5,71.1667 206.5,70.5C 204.463,70.0916 202.129,69.2582 199.5,68C 196.653,65.4285 195.987,62.4285 197.5,59C 199.488,58.8195 201.488,58.9862 203.5,59.5C 203.608,57.4862 202.942,55.8195 201.5,54.5C 202.5,54.5 203.5,54.5 204.5,54.5C 204.744,59.0672 205.91,63.4006 208,67.5C 210.867,62.9007 212.034,57.9007 211.5,52.5 Z"/></g>
<g><path style="opacity:1" fill="#b39470" d="M 197.5,60.5 C 202.036,60.7027 204.702,63.036 205.5,67.5C 200.362,68.0299 197.695,65.6965 197.5,60.5 Z"/></g>
<g><path style="opacity:0.058" fill="#f6f2ef" d="M 36.5,55.5 C 38.1376,56.7046 38.4709,58.0379 37.5,59.5C 35.3146,59.7036 33.3146,60.3702 31.5,61.5C 30.5133,63.4734 29.5133,65.4734 28.5,67.5C 29,67.8333 29.5,68.1667 30,68.5C 34.1036,67.2329 36.6036,64.5663 37.5,60.5C 37.6107,61.1174 37.944,61.6174 38.5,62C 37.8333,64.6667 37.1667,67.3333 36.5,70C 38.3249,71.4659 38.8249,73.2992 38,75.5C 36.6667,77.5 35.3333,79.5 34,81.5C 29.6933,83.6459 26.1933,86.6459 23.5,90.5C 21.9519,90.8212 21.2852,91.8212 21.5,93.5C 20.1667,93.8333 20.1667,94.1667 21.5,94.5C 21.5,95.8333 21.5,97.1667 21.5,98.5C 20.596,99.209 20.2627,100.209 20.5,101.5C 19.4719,93.8182 20.3053,86.1516 23,78.5C 24.2775,76.2528 25.7775,74.2528 27.5,72.5C 28.6441,73.1826 28.6441,72.8493 27.5,71.5C 27.5,70.8333 27.1667,70.5 26.5,70.5C 25.9941,72.1054 25.3274,72.4387 24.5,71.5C 23.9084,68.8728 23.5751,66.2062 23.5,63.5C 20.7081,63.4521 18.8747,64.7854 18,67.5C 17.3333,70.1667 17.3333,72.8333 18,75.5C 19.417,76.0779 20.2504,77.0779 20.5,78.5C 20.7373,79.791 20.404,80.791 19.5,81.5C 19.4312,78.9158 18.2645,76.9158 16,75.5C 14.882,68.5697 17.382,63.403 23.5,60C 22.2721,56.8257 22.4388,53.659 24,50.5C 26.4164,49.9101 28.5831,49.9101 30.5,50.5C 30.0616,46.266 31.7283,44.5994 35.5,45.5C 36.6113,46.6113 37.278,47.9446 37.5,49.5C 36.6992,51.6331 36.3659,53.6331 36.5,55.5 Z M 26.5,69.5 C 25.537,68.6365 25.537,67.9698 26.5,67.5C 27.7733,68.2565 27.7733,68.9232 26.5,69.5 Z M 31.5,61.5 C 30.5655,60.4324 30.2322,59.099 30.5,57.5C 31.675,57.281 32.675,57.6143 33.5,58.5C 32.8075,59.5178 32.1408,60.5178 31.5,61.5 Z M 36.5,55.5 C 36.2172,56.2891 35.7172,56.9558 35,57.5C 34.4719,56.184 34.9719,55.5173 36.5,55.5 Z"/></g>
<g><path style="opacity:1" fill="#b4916c" d="M 25.5,50.5 C 27.7894,51.7138 29.1228,53.7138 29.5,56.5C 27.9618,68.1566 26.2951,68.3232 24.5,57C 24.6527,54.7841 24.9861,52.6175 25.5,50.5 Z"/></g>
<g><path style="opacity:1" fill="#a99179" d="M 30.5,50.5 C 31.2076,48.6221 32.3743,46.9555 34,45.5C 34.6667,48.1667 34.6667,50.8333 34,53.5C 33.3109,54.3567 32.4776,55.0233 31.5,55.5C 30.5481,53.9547 30.2148,52.288 30.5,50.5 Z"/></g>
<g><path style="opacity:0.904" fill="#4b4b4b" d="M 192.5,13.5 C 192.833,13.5 193.167,13.5 193.5,13.5C 194.462,51.9859 194.129,90.3192 192.5,128.5C 192.5,90.1667 192.5,51.8333 192.5,13.5 Z"/></g>
<g><path style="opacity:0.623" fill="#e2d9cd" d="M 80.5,27.5 C 72.0065,29.4867 63.3398,29.82 54.5,28.5C 53.5,28.8333 52.8333,29.5 52.5,30.5C 52.4787,63.2043 52.812,95.5376 53.5,127.5C 52.8333,126.167 52.1667,124.833 51.5,123.5C 51.5,91.5 51.5,59.5 51.5,27.5C 61.1667,27.5 70.8333,27.5 80.5,27.5 Z"/></g>
<g><path style="opacity:1" fill="#b19375" d="M 24.5,71.5 C 23.4335,73.964 22.1002,76.2974 20.5,78.5C 20.2504,77.0779 19.417,76.0779 18,75.5C 17.3333,72.8333 17.3333,70.1667 18,67.5C 18.8747,64.7854 20.7081,63.4521 23.5,63.5C 23.5751,66.2062 23.9084,68.8728 24.5,71.5 Z"/></g>
<g><path style="opacity:0.027" fill="#d7d7d6" d="M 108.5,72.5 C 108.573,74.0269 107.906,75.0269 106.5,75.5C 106.427,73.9731 107.094,72.9731 108.5,72.5 Z"/></g>
<g><path style="opacity:0.041" fill="#f9f6f3" d="M 206.5,72.5 C 208.065,74.5093 209.065,76.8427 209.5,79.5C 209.565,79.9382 209.399,80.2716 209,80.5C 207.34,75.3317 203.84,72.665 198.5,72.5C 198.372,74.6547 198.872,76.6547 200,78.5C 201.812,80.3003 203.645,81.9669 205.5,83.5C 200.662,82.1605 197.662,78.9938 196.5,74C 197,72.1667 198.167,71 200,70.5C 202.139,71.2364 204.139,72.2364 206,73.5C 206.399,73.2716 206.565,72.9382 206.5,72.5 Z"/></g>
<g><path style="opacity:1" fill="#a88972" d="M 216.5,65.5 C 216.82,68.8984 216.487,72.2317 215.5,75.5C 213.517,75.8148 212.184,76.8148 211.5,78.5C 210.542,76.6976 209.875,74.6976 209.5,72.5C 211.067,70.1431 212.067,67.4764 212.5,64.5C 213,64.1667 213.5,63.8333 214,63.5C 215.011,64.0556 215.844,64.7222 216.5,65.5 Z"/></g>
<g><path style="opacity:1" fill="#b79670" d="M 31.5,72.5 C 33.288,72.2148 34.9547,72.5481 36.5,73.5C 33.5519,79.4483 29.2185,84.115 23.5,87.5C 22.9775,84.4911 23.4775,81.4911 25,78.5C 27.0627,76.2659 29.2294,74.2659 31.5,72.5 Z"/></g>
<g><path style="opacity:1" fill="#b39170" d="M 209.5,79.5 C 210.338,79.8417 210.672,80.5084 210.5,81.5C 209.842,82.3984 209.176,83.3984 208.5,84.5C 207.583,83.8728 206.583,83.5394 205.5,83.5C 203.645,81.9669 201.812,80.3003 200,78.5C 198.872,76.6547 198.372,74.6547 198.5,72.5C 203.84,72.665 207.34,75.3317 209,80.5C 209.399,80.2716 209.565,79.9382 209.5,79.5 Z"/></g>
<g><path style="opacity:0.182" fill="#f7f2ee" d="M 216.5,65.5 C 217.3,70.1726 218.967,74.5059 221.5,78.5C 218.22,77.0843 215.887,78.0843 214.5,81.5C 214.719,80.325 214.386,79.325 213.5,78.5C 212.702,78.9569 212.369,79.6236 212.5,80.5C 211.662,80.1583 211.328,79.4916 211.5,78.5C 212.184,76.8148 213.517,75.8148 215.5,75.5C 216.487,72.2317 216.82,68.8984 216.5,65.5 Z"/></g>
<g><path style="opacity:1" fill="#94785d" d="M 149.5,23.5 C 150.952,24.3019 152.618,24.8019 154.5,25C 164.161,25.4998 173.828,25.6665 183.5,25.5C 183.5,57.5 183.5,89.5 183.5,121.5C 183.5,121.833 183.5,122.167 183.5,122.5C 182.819,124.158 181.985,125.825 181,127.5C 180.503,124.854 180.336,122.187 180.5,119.5C 180.5,118.5 180.5,117.5 180.5,116.5C 181.664,87.3362 181.83,58.0029 181,28.5C 171.583,27.5149 162.083,27.1816 152.5,27.5C 152.167,27.5 151.833,27.5 151.5,27.5C 148.094,25.891 144.427,24.7244 140.5,24C 143.482,23.502 146.482,23.3354 149.5,23.5 Z"/></g>
<g><path style="opacity:1" fill="#262626" d="M 108.5,72.5 C 107.094,72.9731 106.427,73.9731 106.5,75.5C 105.167,77.5 103.5,79.1667 101.5,80.5C 99.8008,80.3398 98.1341,80.5065 96.5,81C 97.5981,81.7697 97.5981,82.603 96.5,83.5C 95.2196,84.9313 93.5529,85.5979 91.5,85.5C 90.209,85.2627 89.209,85.596 88.5,86.5C 88.6068,88.3786 88.1068,88.7119 87,87.5C 86.0053,88.0659 85.172,88.7326 84.5,89.5C 83.209,89.7373 82.209,89.404 81.5,88.5C 78.0381,87.5184 74.3714,87.185 70.5,87.5C 70.1713,100.344 70.5046,113.011 71.5,125.5C 72.2341,126.708 72.5674,128.041 72.5,129.5C 72.2291,131.38 72.8958,132.713 74.5,133.5C 74.5,135.5 75.5,136.5 77.5,136.5C 79.403,136.796 81.0697,137.463 82.5,138.5C 83.5676,139.434 84.901,139.768 86.5,139.5C 86.5,140.5 86.5,141.5 86.5,142.5C 85.5,142.5 84.5,142.5 83.5,142.5C 83.1667,142.5 82.8333,142.5 82.5,142.5C 81.0697,141.463 79.403,140.796 77.5,140.5C 74.3093,139.908 71.3093,138.741 68.5,137C 65.854,136.503 63.1873,136.336 60.5,136.5C 58.8008,136.66 57.1341,136.494 55.5,136C 56.4158,135.722 57.0825,135.222 57.5,134.5C 57.8417,133.662 58.5084,133.328 59.5,133.5C 60.9063,133.027 61.573,132.027 61.5,130.5C 61.7086,129.078 62.2086,127.745 63,126.5C 63.6667,101.833 63.6667,77.1667 63,52.5C 62.4565,48.4096 60.6232,45.0762 57.5,42.5C 56.8902,41.609 56.5569,40.609 56.5,39.5C 60.5384,39.9578 64.5384,40.6245 68.5,41.5C 69.5,41.1667 70.1667,40.5 70.5,39.5C 72.153,39.3404 73.4863,38.6737 74.5,37.5C 79.4534,34.2201 84.7867,33.7201 90.5,36C 108.231,42.6263 114.231,54.793 108.5,72.5 Z M 88.5,40.5 C 88.9731,41.9063 89.9731,42.573 91.5,42.5C 100.563,51.8155 102.563,62.4822 97.5,74.5C 95.1667,76.1667 93.1667,78.1667 91.5,80.5C 87.5322,81.7152 83.5322,82.7152 79.5,83.5C 76.8333,83.5 74.1667,83.5 71.5,83.5C 71.5,72.5 71.5,61.5 71.5,50.5C 72.6118,48.4006 73.2785,46.0673 73.5,43.5C 74.8333,42.8333 75.8333,41.8333 76.5,40.5C 80.4841,39.2575 84.4841,39.2575 88.5,40.5 Z"/></g>
<g><path style="opacity:0.71" fill="#969697" d="M 97.5,74.5 C 96.5,77.5 94.5,79.5 91.5,80.5C 93.1667,78.1667 95.1667,76.1667 97.5,74.5 Z"/></g>
<g><path style="opacity:0.118" fill="#d8d8d7" d="M 76.5,40.5 C 75.8333,41.8333 74.8333,42.8333 73.5,43.5C 73.5,41.5 74.5,40.5 76.5,40.5 Z"/></g>
<g><path style="opacity:0.529" fill="#bcbcbc" d="M 88.5,40.5 C 90.0269,40.427 91.0269,41.0937 91.5,42.5C 89.9731,42.573 88.9731,41.9063 88.5,40.5 Z"/></g>
<g><path style="opacity:0.38" fill="#dadada" d="M 70.5,39.5 C 70.1667,40.5 69.5,41.1667 68.5,41.5C 68.5,40.1667 69.1667,39.5 70.5,39.5 Z"/></g>
<g><path style="opacity:1" fill="#6d6e6b" d="M 101.5,80.5 C 100.101,81.8897 98.4341,82.8897 96.5,83.5C 97.5981,82.603 97.5981,81.7697 96.5,81C 98.1341,80.5065 99.8008,80.3398 101.5,80.5 Z"/></g>
<g><path style="opacity:1" fill="#bb9774" d="M 221.5,78.5 C 221.665,82.1817 221.499,85.8484 221,89.5C 219.491,91.9193 217.325,92.9193 214.5,92.5C 214.5,88.8333 214.5,85.1667 214.5,81.5C 215.887,78.0843 218.22,77.0843 221.5,78.5 Z"/></g>
<g><path style="opacity:0.301" fill="#faf7f3" d="M 12.5,76.5 C 11.6274,80.7685 11.2941,85.1018 11.5,89.5C 10.3909,87.4138 9.72426,85.0804 9.5,82.5C 9.46719,79.8984 10.4672,77.8984 12.5,76.5 Z"/></g>
<g><path style="opacity:0.678" fill="#b4b4b4" d="M 71.5,50.5 C 71.5,61.5 71.5,72.5 71.5,83.5C 74.1667,83.5 76.8333,83.5 79.5,83.5C 76.7131,84.4767 73.7131,84.81 70.5,84.5C 70.1719,72.9877 70.5052,61.6544 71.5,50.5 Z"/></g>
<g><path style="opacity:0.379" fill="#dcdcdc" d="M 138.5,49.5 C 139.495,60.988 139.828,72.6547 139.5,84.5C 126.456,83.853 113.789,84.5197 101.5,86.5C 100.596,85.791 100.263,84.791 100.5,83.5C 113.167,83.5 125.833,83.5 138.5,83.5C 138.5,72.1667 138.5,60.8333 138.5,49.5 Z"/></g>
<g><path style="opacity:0.044" fill="#efedeb" d="M 210.5,81.5 C 210.833,83.5 211.167,85.5 211.5,87.5C 208.775,87.063 206.775,85.7296 205.5,83.5C 206.583,83.5394 207.583,83.8728 208.5,84.5C 209.176,83.3984 209.842,82.3984 210.5,81.5 Z"/></g>
<g><path style="opacity:0.937" fill="#b29a7f" d="M 19.5,81.5 C 18.6682,89.8048 18.3348,98.1381 18.5,106.5C 17.5655,105.432 17.2322,104.099 17.5,102.5C 17.5,99.8333 17.5,97.1667 17.5,94.5C 17.6068,92.6214 17.1068,92.2881 16,93.5C 14.3057,92.3012 12.8057,90.9678 11.5,89.5C 11.2941,85.1018 11.6274,80.7685 12.5,76.5C 12.8966,75.475 13.5632,75.3083 14.5,76C 15.6635,78.3284 17.3302,80.1618 19.5,81.5 Z"/></g>
<g><path style="opacity:0.047" fill="#e7e8e7" d="M 88.5,86.5 C 89.209,85.596 90.209,85.2627 91.5,85.5C 91.5,86.1667 91.5,86.8333 91.5,87.5C 90.391,87.4431 89.391,87.1098 88.5,86.5 Z"/></g>
<g><path style="opacity:0.561" fill="#e7e1d9" d="M 221.5,78.5 C 222.266,80.6843 222.933,83.0177 223.5,85.5C 222.548,89.0735 221.215,92.4069 219.5,95.5C 218.833,95.5 218.5,95.8333 218.5,96.5C 217.312,95.9524 216.145,95.6191 215,95.5C 214.536,96.0944 214.369,96.7611 214.5,97.5C 213.673,92.6545 213.006,87.6545 212.5,82.5C 213.167,82.1667 213.833,81.8333 214.5,81.5C 214.5,85.1667 214.5,88.8333 214.5,92.5C 217.325,92.9193 219.491,91.9193 221,89.5C 221.499,85.8484 221.665,82.1817 221.5,78.5 Z"/></g>
<g><path style="opacity:0.945" fill="#998164" d="M 77.5,25.5 C 79.7354,25.2053 81.7354,25.5386 83.5,26.5C 82.5084,26.3284 81.8417,26.6618 81.5,27.5C 81.1667,27.5 80.8333,27.5 80.5,27.5C 70.8333,27.5 61.1667,27.5 51.5,27.5C 51.5,59.5 51.5,91.5 51.5,123.5C 51.6602,125.199 51.4935,126.866 51,128.5C 50.7679,127.263 50.2679,126.263 49.5,125.5C 49.5,92.1667 49.5,58.8333 49.5,25.5C 58.8333,25.5 68.1667,25.5 77.5,25.5 Z"/></g>
<g><path style="opacity:0.568" fill="#b0b1b0" d="M 45.5,20.5 C 47.7354,20.2053 49.7354,20.5386 51.5,21.5C 49.8333,21.5 48.1667,21.5 46.5,21.5C 46.5,55.5 46.5,89.5 46.5,123.5C 45.5017,89.3374 45.1683,55.0041 45.5,20.5 Z"/></g>
<g><path style="opacity:0.897" fill="#474849" d="M 185.5,20.5 C 186.209,19.596 187.209,19.2627 188.5,19.5C 188.667,52.835 188.5,86.1683 188,119.5C 187.809,121.708 187.309,123.708 186.5,125.5C 187.316,93.3954 187.649,61.3954 187.5,29.5C 187.483,26.0866 186.816,23.0866 185.5,20.5 Z"/></g>
<g><path style="opacity:0.108" fill="#f5f5f5" d="M 101.5,89.5 C 114.167,89.5 126.833,89.5 139.5,89.5C 139.829,103.677 139.496,117.677 138.5,131.5C 138.5,117.833 138.5,104.167 138.5,90.5C 125.989,90.8286 113.655,90.4952 101.5,89.5 Z"/></g>
<g><path style="opacity:0.728" fill="#8d8e8d" d="M 148.5,41.5 C 147.439,73.8185 147.439,106.152 148.5,138.5C 147.778,138.082 147.278,137.416 147,136.5C 146.333,106.5 146.333,76.5 147,46.5C 147.198,44.6183 147.698,42.9516 148.5,41.5 Z"/></g>
<g><path style="opacity:0.066" fill="#f7f3ef" d="M 11.5,89.5 C 12.8057,90.9678 14.3057,92.3012 16,93.5C 17.1068,92.2881 17.6068,92.6214 17.5,94.5C 13.6509,94.9807 11.6509,93.314 11.5,89.5 Z"/></g>
<g><path style="opacity:0.061" fill="#f1ece5" d="M 201.5,86.5 C 200.5,86.5 199.5,86.5 198.5,86.5C 198.505,90.5341 198.838,94.5341 199.5,98.5C 198.778,98.0825 198.278,97.4158 198,96.5C 197.501,92.5138 197.334,88.5138 197.5,84.5C 199.38,84.2291 200.713,84.8958 201.5,86.5 Z"/></g>
<g><path style="opacity:1" fill="#b6926a" d="M 31.5,86.5 C 32.8333,86.5 34.1667,86.5 35.5,86.5C 37.5689,96.0535 33.9022,101.72 24.5,103.5C 24.3359,100.813 24.5026,98.146 25,95.5C 28.501,92.9295 30.6677,89.9295 31.5,86.5 Z"/></g>
<g><path style="opacity:0.804" fill="#a7a7a9" d="M 98.5,92.5 C 100.262,93.2623 101.262,94.5956 101.5,96.5C 99.7376,95.7377 98.7376,94.4044 98.5,92.5 Z"/></g>
<g><path style="opacity:0.725" fill="#cbbdae" d="M 31.5,86.5 C 30.6677,89.9295 28.501,92.9295 25,95.5C 24.5026,98.146 24.3359,100.813 24.5,103.5C 23.7321,104.263 23.2321,105.263 23,106.5C 22.3923,104.846 21.8923,103.179 21.5,101.5C 21.5,100.5 21.5,99.5 21.5,98.5C 21.5,97.1667 21.5,95.8333 21.5,94.5C 21.5,94.1667 21.5,93.8333 21.5,93.5C 21.2852,91.8212 21.9519,90.8212 23.5,90.5C 23.3691,91.3764 23.7025,92.0431 24.5,92.5C 26.2593,89.7341 28.5927,87.7341 31.5,86.5 Z"/></g>
<g><path style="opacity:1" fill="#040404" d="M 40.5,15.5 C 41.4959,15.4142 42.3292,15.7476 43,16.5C 43.1216,18.437 43.955,19.7703 45.5,20.5C 45.1683,55.0041 45.5017,89.3374 46.5,123.5C 46.5,124.167 46.5,124.833 46.5,125.5C 46.8076,127.924 46.4742,130.257 45.5,132.5C 44.7492,131.624 44.2492,130.624 44,129.5C 43.586,129.957 43.086,130.291 42.5,130.5C 41.8243,129.398 41.1577,128.398 40.5,127.5C 40.5,90.1667 40.5,52.8333 40.5,15.5 Z"/></g>
<g><path style="opacity:0.048" fill="#f5f1ed" d="M 6.5,92.5 C 4.41457,100.205 5.7479,107.372 10.5,114C 12.6504,115.411 14.9837,116.245 17.5,116.5C 17.3314,111.819 16.9981,107.152 16.5,102.5C 16.8333,102.5 17.1667,102.5 17.5,102.5C 17.2322,104.099 17.5655,105.432 18.5,106.5C 18.8333,109.833 19.1667,113.167 19.5,116.5C 18.2209,117.968 16.5542,118.635 14.5,118.5C 12.4922,116.732 10.3256,115.066 8,113.5C 5.31352,107.255 3.81352,100.755 3.5,94C 4.04651,93.0754 4.71317,92.2421 5.5,91.5C 6.10667,91.6236 6.44001,91.9569 6.5,92.5 Z"/></g>
<g><path style="opacity:1" fill="#b8946b" d="M 201.5,86.5 C 204.467,86.9886 207.133,88.1552 209.5,90C 210.337,91.0113 210.67,92.1779 210.5,93.5C 210.5,96.8333 210.5,100.167 210.5,103.5C 206.182,103.173 202.516,101.506 199.5,98.5C 198.838,94.5341 198.505,90.5341 198.5,86.5C 199.5,86.5 200.5,86.5 201.5,86.5 Z"/></g>
<g><path style="opacity:1" fill="#656565" d="M 102.5,98.5 C 104.25,99.6594 105.25,101.326 105.5,103.5C 103.241,102.656 102.241,100.989 102.5,98.5 Z"/></g>
<g><path style="opacity:0.306" fill="#e5e4e3" d="M 211.5,88.5 C 212.833,95.8333 212.833,103.167 211.5,110.5C 211.802,107.941 211.468,105.607 210.5,103.5C 210.5,100.167 210.5,96.8333 210.5,93.5C 211.451,92.0813 211.784,90.4147 211.5,88.5 Z"/></g>
<g><path style="opacity:0.113" fill="#f5f5f5" d="M 81.5,88.5 C 78.1667,88.5 74.8333,88.5 71.5,88.5C 71.5,100.833 71.5,113.167 71.5,125.5C 70.5046,113.011 70.1713,100.344 70.5,87.5C 74.3714,87.185 78.0381,87.5184 81.5,88.5 Z"/></g>
<g><path style="opacity:0.043" fill="#f8f6f2" d="M 199.5,98.5 C 202.516,101.506 206.182,103.173 210.5,103.5C 210.217,104.289 209.717,104.956 209,105.5C 207.055,104.137 204.888,103.303 202.5,103C 200.561,102.092 199.561,100.592 199.5,98.5 Z"/></g>
<g><path style="opacity:0.055" fill="#f3efec" d="M 29.5,107.5 C 30.6354,105.787 32.302,105.12 34.5,105.5C 35.5024,115.238 31.8357,121.572 23.5,124.5C 22.5386,122.735 22.2053,120.735 22.5,118.5C 21.5655,117.432 21.2322,116.099 21.5,114.5C 22.8333,113.833 22.8333,113.167 21.5,112.5C 20.5773,108.936 20.244,105.269 20.5,101.5C 20.8333,101.5 21.1667,101.5 21.5,101.5C 21.8923,103.179 22.3923,104.846 23,106.5C 23.2321,105.263 23.7321,104.263 24.5,103.5C 33.9022,101.72 37.5689,96.0535 35.5,86.5C 34.1667,86.5 32.8333,86.5 31.5,86.5C 33.1016,84.9261 35.1016,84.2594 37.5,84.5C 37.9773,89.742 37.1439,94.742 35,99.5C 31.5273,102.257 28.0273,104.924 24.5,107.5C 26.0026,108.052 27.6693,108.052 29.5,107.5 Z"/></g>
<g><path style="opacity:1" fill="#b69976" d="M 223.5,112.5 C 222.415,114.587 220.749,115.92 218.5,116.5C 217.5,116.5 216.5,116.5 215.5,116.5C 215.217,110.198 216.217,104.198 218.5,98.5C 220.332,97.7515 221.999,96.7515 223.5,95.5C 225.092,93.312 226.426,93.312 227.5,95.5C 227.178,101.49 225.844,107.157 223.5,112.5 Z"/></g>
<g><path style="opacity:1" fill="#c19361" d="M 223.5,95.5 C 224.748,96.3339 225.415,97.6672 225.5,99.5C 224.748,103.675 223.415,107.675 221.5,111.5C 220.264,112.246 218.93,112.579 217.5,112.5C 217.335,109.15 217.502,105.817 218,102.5C 219.852,100.043 221.686,97.7093 223.5,95.5 Z"/></g>
<g><path style="opacity:0.055" fill="#f7f3ee" d="M 223.5,112.5 C 225.844,107.157 227.178,101.49 227.5,95.5C 226.426,93.312 225.092,93.312 223.5,95.5C 221.999,96.7515 220.332,97.7515 218.5,98.5C 218.5,97.8333 218.5,97.1667 218.5,96.5C 219.167,96.5 219.5,96.1667 219.5,95.5C 221.67,94.2515 224.004,93.2515 226.5,92.5C 228,92.4528 229,93.1195 229.5,94.5C 228.179,99.0665 227.345,103.733 227,108.5C 226.34,110.324 225.173,111.657 223.5,112.5 Z"/></g>
<g><path style="opacity:0.167" fill="#f7f5f2" d="M 218.5,98.5 C 216.217,104.198 215.217,110.198 215.5,116.5C 216.5,116.5 217.5,116.5 218.5,116.5C 217.035,117.737 215.368,118.737 213.5,119.5C 214.194,114.195 214.528,108.862 214.5,103.5C 215.132,101.257 216.466,99.5907 218.5,98.5 Z"/></g>
<g><path style="opacity:1" fill="#b59979" d="M 6.5,92.5 C 11.7304,94.083 15.0637,97.4164 16.5,102.5C 16.9981,107.152 17.3314,111.819 17.5,116.5C 14.9837,116.245 12.6504,115.411 10.5,114C 5.7479,107.372 4.41457,100.205 6.5,92.5 Z"/></g>
<g><path style="opacity:1" fill="#be8e62" d="M 7.5,96.5 C 10.2978,97.7063 12.4645,99.7063 14,102.5C 14.8374,106.514 15.6708,110.514 16.5,114.5C 13.2933,113.974 10.7933,112.308 9,109.5C 7.71011,105.27 7.21011,100.936 7.5,96.5 Z"/></g>
<g><path style="opacity:1" fill="#bda283" d="M 202.5,105.5 C 204.716,106.203 206.549,107.536 208,109.5C 208.333,109.167 208.667,108.833 209,108.5C 209.566,110.723 210.4,112.723 211.5,114.5C 211.784,116.415 211.451,118.081 210.5,119.5C 209.732,120.263 209.232,121.263 209,122.5C 208.184,121.177 207.017,120.511 205.5,120.5C 202.385,115.742 201.385,110.742 202.5,105.5 Z"/></g>
<g><path style="opacity:1" fill="#be9666" d="M 29.5,107.5 C 30.9669,106.708 32.3002,106.708 33.5,107.5C 33.815,113.537 31.4816,118.203 26.5,121.5C 24.5643,118.792 24.0643,115.792 25,112.5C 26.1932,110.503 27.6932,108.836 29.5,107.5 Z"/></g>
<g><path style="opacity:1" fill="#292a2a" d="M 88.5,86.5 C 89.391,87.1098 90.391,87.4431 91.5,87.5C 94.3702,88.4333 96.7036,90.1 98.5,92.5C 98.7376,94.4044 99.7376,95.7377 101.5,96.5C 102.338,96.8417 102.672,97.5084 102.5,98.5C 102.241,100.989 103.241,102.656 105.5,103.5C 110.067,113.185 114.067,123.185 117.5,133.5C 117.427,135.027 118.094,136.027 119.5,136.5C 119.427,138.027 120.094,139.027 121.5,139.5C 123.833,141.167 125.833,143.167 127.5,145.5C 127.973,146.906 128.973,147.573 130.5,147.5C 134.002,149.625 137.669,149.959 141.5,148.5C 143.698,148.409 144.031,149.075 142.5,150.5C 141.005,150.989 139.671,151.655 138.5,152.5C 133.556,153.509 128.889,152.843 124.5,150.5C 123.738,148.738 122.404,147.738 120.5,147.5C 118.5,146.167 116.833,144.5 115.5,142.5C 115.573,140.973 114.906,139.973 113.5,139.5C 109.452,133.396 106.452,126.729 104.5,119.5C 104.737,118.209 104.404,117.209 103.5,116.5C 100.299,109.768 96.7991,103.102 93,96.5C 90.5588,93.5464 87.7255,91.2131 84.5,89.5C 85.172,88.7326 86.0053,88.0659 87,87.5C 88.1068,88.7119 88.6068,88.3786 88.5,86.5 Z"/></g>
<g><path style="opacity:1" fill="#20201e" d="M 26.5,70.5 C 27.1667,70.5 27.5,70.8333 27.5,71.5C 27.5,71.8333 27.5,72.1667 27.5,72.5C 25.7775,74.2528 24.2775,76.2528 23,78.5C 20.3053,86.1516 19.4719,93.8182 20.5,101.5C 20.244,105.269 20.5773,108.936 21.5,112.5C 21.5,113.167 21.5,113.833 21.5,114.5C 21.2322,116.099 21.5655,117.432 22.5,118.5C 22.2053,120.735 22.5386,122.735 23.5,124.5C 23.5,125.167 23.5,125.833 23.5,126.5C 23.448,128.903 23.7814,131.236 24.5,133.5C 24.7373,134.791 24.404,135.791 23.5,136.5C 22.596,135.791 22.2627,134.791 22.5,133.5C 21.2008,127.764 20.2008,122.098 19.5,116.5C 19.1667,113.167 18.8333,109.833 18.5,106.5C 18.3348,98.1381 18.6682,89.8048 19.5,81.5C 20.404,80.791 20.7373,79.791 20.5,78.5C 22.1002,76.2974 23.4335,73.964 24.5,71.5C 25.3274,72.4387 25.9941,72.1054 26.5,70.5 Z"/></g>
<g><path style="opacity:0.059" fill="#dedede" d="M 103.5,116.5 C 104.404,117.209 104.737,118.209 104.5,119.5C 103.761,119.631 103.094,119.464 102.5,119C 103.252,118.329 103.586,117.496 103.5,116.5 Z"/></g>
<g><path style="opacity:0.069" fill="#faf7f4" d="M 202.5,105.5 C 201.385,110.742 202.385,115.742 205.5,120.5C 202.759,118.7 201.259,116.034 201,112.5C 200.182,109.773 200.348,107.106 201.5,104.5C 202.107,104.624 202.44,104.957 202.5,105.5 Z"/></g>
<g><path style="opacity:0.208" fill="#ede7e3" d="M 221.5,118.5 C 219.727,119.892 217.727,121.059 215.5,122C 216.654,122.914 216.487,123.747 215,124.5C 213.961,123.756 213.461,122.756 213.5,121.5C 215.954,119.94 218.62,118.94 221.5,118.5 Z"/></g>
<g><path style="opacity:0.071" fill="#edeae3" d="M 210.5,119.5 C 210.802,122.059 210.468,124.393 209.5,126.5C 207.834,124.813 206.5,122.813 205.5,120.5C 207.017,120.511 208.184,121.177 209,122.5C 209.232,121.263 209.732,120.263 210.5,119.5 Z"/></g>
<g><path style="opacity:0.184" fill="#f6f1ec" d="M 226.5,124.5 C 227.212,122.072 228.212,119.739 229.5,117.5C 228.311,116.571 226.978,116.238 225.5,116.5C 227.826,113.816 229.826,114.149 231.5,117.5C 230.057,120.077 228.39,122.41 226.5,124.5 Z"/></g>
<g><path style="opacity:0.053" fill="#efe9e2" d="M 203.5,123.5 C 202.542,123.047 201.708,122.381 201,121.5C 198.374,128.124 199.374,134.124 204,139.5C 204.852,138.429 205.685,137.429 206.5,136.5C 206.405,138.786 205.738,140.786 204.5,142.5C 203.332,139.531 201.999,139.198 200.5,141.5C 199.935,139.614 198.935,137.947 197.5,136.5C 196.85,138.184 195.85,139.517 194.5,140.5C 194.447,137.939 195.447,135.939 197.5,134.5C 198.169,129.456 199.002,124.456 200,119.5C 202.071,120.103 203.238,121.436 203.5,123.5 Z"/></g>
<g><path style="opacity:1" fill="#b89670" d="M 225.5,116.5 C 226.978,116.238 228.311,116.571 229.5,117.5C 228.212,119.739 227.212,122.072 226.5,124.5C 224.372,127.13 222.039,129.63 219.5,132C 216.267,134.084 213.267,133.918 210.5,131.5C 211.902,127.859 212.902,124.192 213.5,120.5C 213.5,120.833 213.5,121.167 213.5,121.5C 213.461,122.756 213.961,123.756 215,124.5C 216.487,123.747 216.654,122.914 215.5,122C 217.727,121.059 219.727,119.892 221.5,118.5C 222.287,116.896 223.62,116.229 225.5,116.5 Z"/></g>
<g><path style="opacity:0.18" fill="#eeeae8" d="M 205.5,125.5 C 207.062,125.733 208.395,126.4 209.5,127.5C 209.072,130.785 208.072,133.785 206.5,136.5C 206.59,134.304 206.923,132.137 207.5,130C 207.481,128.167 206.815,126.667 205.5,125.5 Z"/></g>
<g><path style="opacity:1" fill="#ba9772" d="M 33.5,121.5 C 34.5837,126.368 34.4171,131.368 33,136.5C 32.0467,138.455 30.7134,140.122 29,141.5C 28.6264,139.509 27.793,137.842 26.5,136.5C 26.5,133.5 26.5,130.5 26.5,127.5C 28.2393,124.757 30.5726,122.757 33.5,121.5 Z"/></g>
<g><path style="opacity:0.737" fill="#c2b8b1" d="M 23.5,126.5 C 24.2679,127.263 24.7679,128.263 25,129.5C 25.2784,128.584 25.7784,127.918 26.5,127.5C 26.5,130.5 26.5,133.5 26.5,136.5C 25.8333,135.5 25.1667,134.5 24.5,133.5C 23.7814,131.236 23.448,128.903 23.5,126.5 Z"/></g>
<g><path style="opacity:0.529" fill="#c3c2c2" d="M 61.5,130.5 C 61.573,132.027 60.9063,133.027 59.5,133.5C 59.427,131.973 60.0937,130.973 61.5,130.5 Z"/></g>
<g><path style="opacity:0.263" fill="#e4e4e4" d="M 72.5,129.5 C 73.6737,130.514 74.3404,131.847 74.5,133.5C 72.8958,132.713 72.2291,131.38 72.5,129.5 Z"/></g>
<g><path style="opacity:0.049" fill="#f6f4f0" d="M 7.5,116.5 C 6.02218,116.238 4.68884,116.571 3.5,117.5C 4.90174,121.539 6.40174,125.539 8,129.5C 11.3975,133.023 15.5642,134.689 20.5,134.5C 20.3548,126.389 16.6881,120.722 9.5,117.5C 11.2161,117.629 12.8828,117.962 14.5,118.5C 18.1426,123.136 19.8092,122.469 19.5,116.5C 20.2008,122.098 21.2008,127.764 22.5,133.5C 21.2505,134.778 19.7505,135.778 18,136.5C 13.7671,135.55 10.1005,133.55 7,130.5C 5.31428,126.071 3.48095,121.738 1.5,117.5C 3.13336,113.992 5.13336,113.659 7.5,116.5 Z M 19.5,116.5 C 19.8092,122.469 18.1426,123.136 14.5,118.5C 16.5542,118.635 18.2209,117.968 19.5,116.5 Z"/></g>
<g><path style="opacity:1" fill="#bd956c" d="M 7.5,116.5 C 8.49162,116.328 9.15829,116.662 9.5,117.5C 16.6881,120.722 20.3548,126.389 20.5,134.5C 15.5642,134.689 11.3975,133.023 8,129.5C 6.40174,125.539 4.90174,121.539 3.5,117.5C 4.68884,116.571 6.02218,116.238 7.5,116.5 Z"/></g>
<g><path style="opacity:1" fill="#bf996c" d="M 203.5,123.5 C 204.5,123.833 205.167,124.5 205.5,125.5C 206.815,126.667 207.481,128.167 207.5,130C 206.923,132.137 206.59,134.304 206.5,136.5C 205.685,137.429 204.852,138.429 204,139.5C 199.374,134.124 198.374,128.124 201,121.5C 201.708,122.381 202.542,123.047 203.5,123.5 Z"/></g>
<g><path style="opacity:0.066" fill="#f9f7f3" d="M 226.5,124.5 C 224.844,131.182 220.511,134.848 213.5,135.5C 212.482,134.807 211.482,134.141 210.5,133.5C 210.5,132.833 210.5,132.167 210.5,131.5C 213.267,133.918 216.267,134.084 219.5,132C 222.039,129.63 224.372,127.13 226.5,124.5 Z"/></g>
<g><path style="opacity:0.675" fill="#c3c3c4" d="M 74.5,133.5 C 75.8333,134.167 76.8333,135.167 77.5,136.5C 75.5,136.5 74.5,135.5 74.5,133.5 Z"/></g>
<g><path style="opacity:0.922" fill="#919392" d="M 47.5,131.5 C 48.6118,133.599 49.2785,135.933 49.5,138.5C 47.8372,136.562 47.1706,134.228 47.5,131.5 Z"/></g>
<g><path style="opacity:0.345" fill="#c9c9c9" d="M 117.5,133.5 C 118.906,133.973 119.573,134.973 119.5,136.5C 118.094,136.027 117.427,135.027 117.5,133.5 Z"/></g>
<g><path style="opacity:0.057" fill="#efe9e2" d="M 33.5,121.5 C 34.1894,120.226 35.0228,120.226 36,121.5C 36.4876,126.921 35.9876,132.255 34.5,137.5C 40.056,140.945 42.7227,145.945 42.5,152.5C 41.5318,154.607 41.1984,156.941 41.5,159.5C 40.8423,158.602 40.1757,157.602 39.5,156.5C 38.7025,156.957 38.3691,157.624 38.5,158.5C 36.7376,157.738 35.7376,156.404 35.5,154.5C 37.0861,155.413 38.5861,155.413 40,154.5C 41.4261,149.243 40.2594,144.743 36.5,141C 35.552,140.517 34.552,140.351 33.5,140.5C 33.1667,139.167 32.8333,139.167 32.5,140.5C 31.1283,141.512 29.795,142.512 28.5,143.5C 27.3882,141.401 26.7215,139.067 26.5,136.5C 27.793,137.842 28.6264,139.509 29,141.5C 30.7134,140.122 32.0467,138.455 33,136.5C 34.4171,131.368 34.5837,126.368 33.5,121.5 Z"/></g>
<g><path style="opacity:0.066" fill="#efeae6" d="M 209.5,136.5 C 210.919,137.451 212.585,137.784 214.5,137.5C 211.673,138.419 209.34,140.086 207.5,142.5C 207.595,140.214 208.262,138.214 209.5,136.5 Z"/></g>
<g><path style="opacity:0.039" fill="#fbf8f4" d="M 22.5,140.5 C 17.7155,138.244 12.7155,137.078 7.5,137C 8.98582,139.475 10.3192,141.975 11.5,144.5C 8.5505,142.272 6.88383,139.272 6.5,135.5C 11.5431,136.008 16.5431,136.842 21.5,138C 22.2524,138.671 22.5858,139.504 22.5,140.5 Z"/></g>
<g><path style="opacity:0.525" fill="#b8b9b8" d="M 119.5,136.5 C 120.906,136.973 121.573,137.973 121.5,139.5C 120.094,139.027 119.427,138.027 119.5,136.5 Z"/></g>
<g><path style="opacity:0.596" fill="#b2b2b2" d="M 136.5,136.5 C 136.573,138.027 135.906,139.027 134.5,139.5C 134.427,137.973 135.094,136.973 136.5,136.5 Z"/></g>
<g><path style="opacity:0.231" fill="#e9e9e9" d="M 82.5,138.5 C 84.1667,138.5 85.8333,138.5 87.5,138.5C 87.5,140.167 87.5,141.833 87.5,143.5C 85.901,143.768 84.5676,143.434 83.5,142.5C 84.5,142.5 85.5,142.5 86.5,142.5C 86.5,141.5 86.5,140.5 86.5,139.5C 84.901,139.768 83.5676,139.434 82.5,138.5 Z"/></g>
<g><path style="opacity:0.039" fill="#d0d0d0" d="M 149.5,139.5 C 151.027,139.427 152.027,140.094 152.5,141.5C 150.973,141.573 149.973,140.906 149.5,139.5 Z"/></g>
<g><path style="opacity:0.051" fill="#f7f4ef" d="M 202.5,151.5 C 202.932,150.29 203.599,149.29 204.5,148.5C 207.464,150.918 210.798,151.085 214.5,149C 218.698,145.181 221.531,140.681 223,135.5C 220.699,136.867 218.199,137.534 215.5,137.5C 217.78,136.233 220.28,135.233 223,134.5C 224.28,134.613 225.113,135.28 225.5,136.5C 223.136,139.699 220.97,143.032 219,146.5C 214.704,152.098 209.204,153.765 202.5,151.5 Z"/></g>
<g><path style="opacity:0.008" fill="#dedfdf" d="M 113.5,139.5 C 114.906,139.973 115.573,140.973 115.5,142.5C 114.094,142.027 113.427,141.027 113.5,139.5 Z"/></g>
<g><path style="opacity:0.827" fill="#949494" d="M 134.5,139.5 C 134.027,140.906 133.027,141.573 131.5,141.5C 131.973,140.094 132.973,139.427 134.5,139.5 Z"/></g>
<g><path style="opacity:0.004" fill="#ececeb" d="M 77.5,140.5 C 79.403,140.796 81.0697,141.463 82.5,142.5C 80.302,142.88 78.6354,142.213 77.5,140.5 Z"/></g>
<g><path style="opacity:0.463" fill="#cecfcf" d="M 131.5,141.5 C 131.389,142.117 131.056,142.617 130.5,143C 131.793,143.49 133.127,143.657 134.5,143.5C 133.081,144.451 131.415,144.784 129.5,144.5C 129.285,142.821 129.952,141.821 131.5,141.5 Z"/></g>
<g><path style="opacity:0.314" fill="#e1e0e1" d="M 153.5,141.5 C 155.048,141.821 155.715,142.821 155.5,144.5C 153.901,144.768 152.568,144.434 151.5,143.5C 153.993,143.869 154.66,143.203 153.5,141.5 Z"/></g>
<g><path style="opacity:1" fill="#be9364" d="M 22.5,140.5 C 24.3959,143.284 26.0626,146.284 27.5,149.5C 27.2907,150.086 26.9574,150.586 26.5,151C 24.1667,151.667 21.8333,151.667 19.5,151C 16.6693,148.999 14.0026,146.833 11.5,144.5C 10.3192,141.975 8.98582,139.475 7.5,137C 12.7155,137.078 17.7155,138.244 22.5,140.5 Z"/></g>
<g><path style="opacity:0.02" fill="#d5d5d6" d="M 127.5,145.5 C 129.027,145.427 130.027,146.094 130.5,147.5C 128.973,147.573 127.973,146.906 127.5,145.5 Z"/></g>
<g><path style="opacity:0.745" fill="#959799" d="M 180.5,143.5 C 180.262,145.404 179.262,146.738 177.5,147.5C 177.738,145.596 178.738,144.262 180.5,143.5 Z"/></g>
<g><path style="opacity:1" fill="#b6956f" d="M 200.5,141.5 C 200.856,143.19 201.856,144.19 203.5,144.5C 201.812,149.226 199.145,153.226 195.5,156.5C 194.746,151.537 194.413,146.537 194.5,141.5C 194.5,141.167 194.5,140.833 194.5,140.5C 195.85,139.517 196.85,138.184 197.5,136.5C 198.935,137.947 199.935,139.614 200.5,141.5 Z"/></g>
<g><path style="opacity:1" fill="#ba946c" d="M 204.5,148.5 C 204.992,146.181 205.992,144.181 207.5,142.5C 209.34,140.086 211.673,138.419 214.5,137.5C 214.833,137.5 215.167,137.5 215.5,137.5C 218.199,137.534 220.699,136.867 223,135.5C 221.531,140.681 218.698,145.181 214.5,149C 210.798,151.085 207.464,150.918 204.5,148.5 Z"/></g>
<g><path style="opacity:1" fill="#757573" d="M 186.5,144.5 C 186.25,146.674 185.25,148.341 183.5,149.5C 183.241,147.011 184.241,145.344 186.5,144.5 Z"/></g>
<g><path style="opacity:0.584" fill="#a7a9a7" d="M 52.5,145.5 C 53.9063,145.973 54.573,146.973 54.5,148.5C 53.0937,148.027 52.427,147.027 52.5,145.5 Z"/></g>
<g><path style="opacity:0.859" fill="#b5b2b3" d="M 142.5,150.5 C 144.031,149.075 143.698,148.409 141.5,148.5C 142.786,146.632 144.119,146.466 145.5,148C 144.922,149.417 143.922,150.25 142.5,150.5 Z"/></g>
<g><path style="opacity:1" fill="#2e2e2e" d="M 46.5,125.5 C 47.4614,127.265 47.7947,129.265 47.5,131.5C 47.1706,134.228 47.8372,136.562 49.5,138.5C 50.7729,140.713 51.7729,143.046 52.5,145.5C 52.427,147.027 53.0937,148.027 54.5,148.5C 58.7913,153.295 63.7913,157.129 69.5,160C 80.521,164.713 91.1877,169.879 101.5,175.5C 100.504,175.414 99.6708,175.748 99,176.5C 96.8784,173.817 95.3784,174.15 94.5,177.5C 93.5,177.5 92.5,177.5 91.5,177.5C 90.5084,177.672 89.8417,177.338 89.5,176.5C 88.2196,175.069 86.5529,174.402 84.5,174.5C 80.2132,173.352 76.2132,171.685 72.5,169.5C 72.0269,168.094 71.0269,167.427 69.5,167.5C 68.5084,167.672 67.8417,167.338 67.5,166.5C 67.0269,165.094 66.0269,164.427 64.5,164.5C 64.0269,163.094 63.0269,162.427 61.5,162.5C 60.7377,160.738 59.4044,159.738 57.5,159.5C 56.7377,157.738 55.4044,156.738 53.5,156.5C 45.6652,148.49 41.3318,138.823 40.5,127.5C 41.1577,128.398 41.8243,129.398 42.5,130.5C 43.086,130.291 43.586,129.957 44,129.5C 44.2492,130.624 44.7492,131.624 45.5,132.5C 46.4742,130.257 46.8076,127.924 46.5,125.5 Z"/></g>
<g><path style="opacity:0.702" fill="#aaaaaa" d="M 120.5,147.5 C 122.404,147.738 123.738,148.738 124.5,150.5C 122.596,150.262 121.262,149.262 120.5,147.5 Z"/></g>
<g><path style="opacity:0.561" fill="#dfd8d0" d="M 32.5,140.5 C 32.8333,140.5 33.1667,140.5 33.5,140.5C 33.41,142.696 33.0767,144.863 32.5,147C 33.1086,149.708 34.1086,152.208 35.5,154.5C 32.7589,152.025 30.7589,149.025 29.5,145.5C 30.1174,145.611 30.6174,145.944 31,146.5C 31.813,144.564 32.313,142.564 32.5,140.5 Z"/></g>
<g><path style="opacity:0.075" fill="#f3f0eb" d="M 24.5,139.5 C 26.1472,143.424 27.8139,147.424 29.5,151.5C 21.4245,155.291 15.4245,152.958 11.5,144.5C 14.0026,146.833 16.6693,148.999 19.5,151C 21.8333,151.667 24.1667,151.667 26.5,151C 26.9574,150.586 27.2907,150.086 27.5,149.5C 26.0626,146.284 24.3959,143.284 22.5,140.5C 23.9245,142.031 24.5912,141.698 24.5,139.5 Z"/></g>
<g><path style="opacity:1" fill="#be9167" d="M 33.5,140.5 C 34.552,140.351 35.552,140.517 36.5,141C 40.2594,144.743 41.4261,149.243 40,154.5C 38.5861,155.413 37.0861,155.413 35.5,154.5C 34.1086,152.208 33.1086,149.708 32.5,147C 33.0767,144.863 33.41,142.696 33.5,140.5 Z"/></g>
<g><path style="opacity:0.044" fill="#f3f3f3" d="M 142.5,150.5 C 141.817,152.176 140.483,152.843 138.5,152.5C 139.671,151.655 141.005,150.989 142.5,150.5 Z"/></g>
<g><path style="opacity:0.02" fill="#d5d4d4" d="M 182.5,150.5 C 182.573,152.027 181.906,153.027 180.5,153.5C 180.5,152.833 180.5,152.167 180.5,151.5C 181.167,151.167 181.833,150.833 182.5,150.5 Z"/></g>
<g><path style="opacity:1" fill="#bba996" d="M 180.5,119.5 C 180.336,122.187 180.503,124.854 181,127.5C 181.985,125.825 182.819,124.158 183.5,122.5C 183.029,131.262 180.029,138.928 174.5,145.5C 168.289,151.432 161.289,156.099 153.5,159.5C 150.972,160.011 148.472,160.678 146,161.5C 143.641,161.676 143.141,161.009 144.5,159.5C 154.961,156.015 164.127,150.349 172,142.5C 176.344,135.291 179.178,127.625 180.5,119.5 Z"/></g>
<g><path style="opacity:0.041" fill="#e3e3e3" d="M 202.5,151.5 C 202.715,153.179 202.048,154.179 200.5,154.5C 200.932,153.29 201.599,152.29 202.5,151.5 Z"/></g>
<g><path style="opacity:0.073" fill="#faf8f4" d="M 174.5,145.5 C 172.737,149.099 170.07,151.932 166.5,154C 162.626,156.937 158.293,158.771 153.5,159.5C 161.289,156.099 168.289,151.432 174.5,145.5 Z"/></g>
<g><path style="opacity:1" fill="#3c3c3a" d="M 174.5,150.5 C 174.489,152.017 173.823,153.184 172.5,154C 173.416,154.374 174.25,154.874 175,155.5C 175.284,153.114 176.284,152.448 178,153.5C 178.417,152.244 179.25,151.577 180.5,151.5C 180.5,152.167 180.5,152.833 180.5,153.5C 179.375,155.129 178.041,156.629 176.5,158C 173.778,160.358 170.778,162.191 167.5,163.5C 168.221,161.085 169.554,159.085 171.5,157.5C 170.311,156.571 168.978,156.238 167.5,156.5C 169.808,154.529 172.142,152.529 174.5,150.5 Z"/></g>
<g><path style="opacity:0.251" fill="#f3ede8" d="M 194.5,141.5 C 194.413,146.537 194.746,151.537 195.5,156.5C 195.5,157.167 195.167,157.5 194.5,157.5C 194.672,158.492 194.338,159.158 193.5,159.5C 193.167,158.167 192.833,158.167 192.5,159.5C 191.833,159.5 191.5,159.833 191.5,160.5C 191.167,160.5 190.833,160.5 190.5,160.5C 191.804,157.288 192.804,153.955 193.5,150.5C 193.253,149.287 192.586,148.62 191.5,148.5C 192.869,146.268 193.869,143.934 194.5,141.5 Z"/></g>
<g><path style="opacity:0.058" fill="#fcfaf8" d="M 215.5,155.5 C 210.781,155.888 206.114,156.555 201.5,157.5C 201.611,156.883 201.944,156.383 202.5,156C 206.459,155.721 210.292,154.887 214,153.5C 215.03,153.836 215.53,154.503 215.5,155.5 Z"/></g>
<g><path style="opacity:0.045" fill="#e5e1dd" d="M 22.5,155.5 C 25.5,155.5 28.5,155.5 31.5,155.5C 31.8333,156.833 32.1667,156.833 32.5,155.5C 34.2624,156.262 35.2624,157.596 35.5,159.5C 31.2212,157.685 26.8879,156.352 22.5,155.5 Z"/></g>
<g><path style="opacity:1" fill="#ab8a65" d="M 191.5,148.5 C 192.586,148.62 193.253,149.287 193.5,150.5C 192.804,153.955 191.804,157.288 190.5,160.5C 187.586,163.598 184.586,166.765 181.5,170C 180.552,170.483 179.552,170.649 178.5,170.5C 178.629,168.784 178.962,167.117 179.5,165.5C 180.045,163.407 180.878,161.407 182,159.5C 185.032,155.641 188.198,151.974 191.5,148.5 Z"/></g>
<g><path style="opacity:0.776" fill="#939391" d="M 53.5,156.5 C 55.4044,156.738 56.7377,157.738 57.5,159.5C 55.5956,159.262 54.2623,158.262 53.5,156.5 Z"/></g>
<g><path style="opacity:0.153" fill="#faf6f2" d="M 66.5,154.5 C 70.3346,156.25 74.0012,158.25 77.5,160.5C 73.0666,159.786 69.4,157.786 66.5,154.5 Z"/></g>
<g><path style="opacity:0.925" fill="#91908c" d="M 57.5,159.5 C 59.4044,159.738 60.7377,160.738 61.5,162.5C 59.5956,162.262 58.2623,161.262 57.5,159.5 Z"/></g>
<g><path style="opacity:0.945" fill="#c1af9c" d="M 51.5,123.5 C 52.1667,124.833 52.8333,126.167 53.5,127.5C 54.2829,129.343 54.9495,131.343 55.5,133.5C 55.9569,134.298 56.6236,134.631 57.5,134.5C 57.0825,135.222 56.4158,135.722 55.5,136C 57.1341,136.494 58.8008,136.66 60.5,136.5C 59.7375,137.268 58.7375,137.768 57.5,138C 60.061,143.895 64.061,148.561 69.5,152C 79.2364,156.866 89.2364,161.2 99.5,165C 104.473,167.489 109.14,170.489 113.5,174C 114.5,174.667 115.5,174.667 116.5,174C 120.5,171.333 124.5,168.667 128.5,166C 130.765,164.882 133.099,164.049 135.5,163.5C 134.34,164.265 133.34,165.265 132.5,166.5C 133.325,167.386 134.325,167.719 135.5,167.5C 128.874,171.773 122.207,176.107 115.5,180.5C 113.214,179.867 111.548,178.534 110.5,176.5C 110.047,175.542 109.381,174.708 108.5,174C 102.371,170.6 96.0373,167.766 89.5,165.5C 85.1108,164.597 81.1108,162.931 77.5,160.5C 74.0012,158.25 70.3346,156.25 66.5,154.5C 56.0155,147.892 50.3488,138.225 49.5,125.5C 50.2679,126.263 50.7679,127.263 51,128.5C 51.4935,126.866 51.6602,125.199 51.5,123.5 Z"/></g>
<g><path style="opacity:0.137" fill="#f3ede8" d="M 48.5,157.5 C 50.5869,158.585 51.9202,160.251 52.5,162.5C 50.4131,161.415 49.0798,159.749 48.5,157.5 Z"/></g>
<g><path style="opacity:1" fill="#e2d9d0" d="M 144.5,159.5 C 143.141,161.009 143.641,161.676 146,161.5C 148.472,160.678 150.972,160.011 153.5,159.5C 149.525,161.561 145.525,163.727 141.5,166C 139.564,166.813 137.564,167.313 135.5,167.5C 137.942,165.774 140.609,164.274 143.5,163C 142.975,162.308 142.308,161.808 141.5,161.5C 140.264,162.246 138.93,162.579 137.5,162.5C 139.426,160.707 141.759,159.707 144.5,159.5 Z"/></g>
<g><path style="opacity:1" fill="#b9926a" d="M 48.5,157.5 C 49.0798,159.749 50.4131,161.415 52.5,162.5C 53.9204,165.64 54.9204,168.973 55.5,172.5C 55.1667,172.833 54.8333,173.167 54.5,173.5C 50.6929,172.191 48.5263,169.524 48,165.5C 46.4345,166.061 45.1011,165.394 44,163.5C 42.1497,160.463 42.1497,157.463 44,154.5C 45.129,156.141 46.629,157.141 48.5,157.5 Z"/></g>
<g><path style="opacity:1" fill="#b99368" d="M 21.5,155.5 C 21.8333,155.5 22.1667,155.5 22.5,155.5C 26.8879,156.352 31.2212,157.685 35.5,159.5C 36.5813,161.764 37.9146,163.931 39.5,166C 36.2051,168.842 32.5384,169.175 28.5,167C 24.3525,164.02 20.6859,160.52 17.5,156.5C 18.6888,155.571 20.0222,155.238 21.5,155.5 Z"/></g>
<g><path style="opacity:0.561" fill="#acacaa" d="M 61.5,162.5 C 63.0269,162.427 64.0269,163.094 64.5,164.5C 62.9731,164.573 61.9731,163.906 61.5,162.5 Z"/></g>
<g><path style="opacity:1" fill="#2c2927" d="M 206.5,70.5 C 207.5,71.1667 208.5,71.8333 209.5,72.5C 209.875,74.6976 210.542,76.6976 211.5,78.5C 211.328,79.4916 211.662,80.1583 212.5,80.5C 212.5,81.1667 212.5,81.8333 212.5,82.5C 213.006,87.6545 213.673,92.6545 214.5,97.5C 214.5,99.5 214.5,101.5 214.5,103.5C 214.528,108.862 214.194,114.195 213.5,119.5C 213.5,119.833 213.5,120.167 213.5,120.5C 212.902,124.192 211.902,127.859 210.5,131.5C 210.5,132.167 210.5,132.833 210.5,133.5C 210.443,134.609 210.11,135.609 209.5,136.5C 208.262,138.214 207.595,140.214 207.5,142.5C 205.992,144.181 204.992,146.181 204.5,148.5C 203.599,149.29 202.932,150.29 202.5,151.5C 201.599,152.29 200.932,153.29 200.5,154.5C 200.672,155.492 200.338,156.158 199.5,156.5C 198.5,156.833 197.833,157.5 197.5,158.5C 194.529,161.808 191.529,165.141 188.5,168.5C 188.5,168.833 188.5,169.167 188.5,169.5C 187.833,169.5 187.5,169.833 187.5,170.5C 186.833,170.5 186.5,170.833 186.5,171.5C 186.167,171.5 185.833,171.5 185.5,171.5C 180.129,175.179 174.796,178.846 169.5,182.5C 160.493,186.385 151.493,190.052 142.5,193.5C 141.508,193.328 140.842,193.662 140.5,194.5C 140.167,194.5 139.833,194.5 139.5,194.5C 136.627,194.802 133.961,195.469 131.5,196.5C 129.035,196.767 126.701,197.434 124.5,198.5C 123.5,198.5 122.5,198.5 121.5,198.5C 121.5,198.167 121.5,197.833 121.5,197.5C 124.505,195.723 127.838,194.723 131.5,194.5C 134.746,193.946 137.746,192.946 140.5,191.5C 140.833,191.5 141.167,191.5 141.5,191.5C 142.492,191.672 143.158,191.338 143.5,190.5C 144.167,190.5 144.5,190.167 144.5,189.5C 146.216,189.371 147.883,189.038 149.5,188.5C 151.553,188.598 153.22,187.931 154.5,186.5C 155.492,186.672 156.158,186.338 156.5,185.5C 157.492,185.672 158.158,185.338 158.5,184.5C 159.167,184.5 159.5,184.167 159.5,183.5C 160.167,183.5 160.833,183.5 161.5,183.5C 162.492,183.672 163.158,183.338 163.5,182.5C 166.669,181.083 169.669,179.417 172.5,177.5C 173.899,176.11 175.566,175.11 177.5,174.5C 182.774,170.895 187.441,166.562 191.5,161.5C 191.5,161.167 191.5,160.833 191.5,160.5C 192.167,160.5 192.5,160.167 192.5,159.5C 192.833,159.5 193.167,159.5 193.5,159.5C 194.338,159.158 194.672,158.492 194.5,157.5C 195.167,157.5 195.5,157.167 195.5,156.5C 199.145,153.226 201.812,149.226 203.5,144.5C 203.328,143.508 203.662,142.842 204.5,142.5C 205.738,140.786 206.405,138.786 206.5,136.5C 208.072,133.785 209.072,130.785 209.5,127.5C 209.5,127.167 209.5,126.833 209.5,126.5C 210.468,124.393 210.802,122.059 210.5,119.5C 211.451,118.081 211.784,116.415 211.5,114.5C 211.5,113.167 211.5,111.833 211.5,110.5C 212.833,103.167 212.833,95.8333 211.5,88.5C 211.5,88.1667 211.5,87.8333 211.5,87.5C 211.167,85.5 210.833,83.5 210.5,81.5C 210.672,80.5084 210.338,79.8417 209.5,79.5C 209.065,76.8427 208.065,74.5093 206.5,72.5C 206.5,71.8333 206.5,71.1667 206.5,70.5 Z"/></g>
<g><path style="opacity:1" fill="#bca180" d="M 215.5,155.5 C 213.167,158.5 210.5,161.167 207.5,163.5C 206.71,164.794 205.71,165.961 204.5,167C 191.938,170.714 189.938,168.214 198.5,159.5C 198.5,158.833 198.167,158.5 197.5,158.5C 197.833,157.5 198.5,156.833 199.5,156.5C 199.842,157.338 200.508,157.672 201.5,157.5C 206.114,156.555 210.781,155.888 215.5,155.5 Z"/></g>
<g><path style="opacity:0.651" fill="#cec2b6" d="M 42.5,152.5 C 45.0892,153.419 47.0892,155.086 48.5,157.5C 46.629,157.141 45.129,156.141 44,154.5C 42.1497,157.463 42.1497,160.463 44,163.5C 45.1011,165.394 46.4345,166.061 48,165.5C 48.5263,169.524 50.6929,172.191 54.5,173.5C 54.8333,173.167 55.1667,172.833 55.5,172.5C 54.9204,168.973 53.9204,165.64 52.5,162.5C 54.0222,163.191 55.0222,164.358 55.5,166C 56.1323,169.88 56.799,173.713 57.5,177.5C 50.5678,173.57 44.9012,168.236 40.5,161.5C 41.3382,161.158 41.6716,160.492 41.5,159.5C 41.1984,156.941 41.5318,154.607 42.5,152.5 Z"/></g>
<g><path style="opacity:0.361" fill="#c9c9c9" d="M 64.5,164.5 C 66.0269,164.427 67.0269,165.094 67.5,166.5C 65.9731,166.573 64.9731,165.906 64.5,164.5 Z"/></g>
<g><path style="opacity:1" fill="#a88f74" d="M 135.5,167.5 C 134.325,167.719 133.325,167.386 132.5,166.5C 133.34,165.265 134.34,164.265 135.5,163.5C 135.842,162.662 136.508,162.328 137.5,162.5C 138.93,162.579 140.264,162.246 141.5,161.5C 142.308,161.808 142.975,162.308 143.5,163C 140.609,164.274 137.942,165.774 135.5,167.5 Z"/></g>
<g><path style="opacity:0.064" fill="#f8f5f2" d="M 21.5,155.5 C 20.0222,155.238 18.6888,155.571 17.5,156.5C 20.6859,160.52 24.3525,164.02 28.5,167C 32.5384,169.175 36.2051,168.842 39.5,166C 37.9146,163.931 36.5813,161.764 35.5,159.5C 38.2427,161.239 40.2427,163.573 41.5,166.5C 40.1667,166.833 40.1667,167.167 41.5,167.5C 42.5,167.833 43.1667,168.5 43.5,169.5C 41.7615,168.566 40.0948,168.566 38.5,169.5C 39.8498,170.95 41.5165,171.617 43.5,171.5C 43.5,171.833 43.5,172.167 43.5,172.5C 38.0557,171.892 33.0557,172.558 28.5,174.5C 27.0645,172.335 27.7312,170.835 30.5,170C 24.2422,167.073 19.2422,162.739 15.5,157C 17.1618,154.553 19.1618,154.053 21.5,155.5 Z"/></g>
<g><path style="opacity:0.052" fill="#f8f6f2" d="M 215.5,155.5 C 216.097,155.735 216.43,156.235 216.5,157C 212.634,162.697 207.634,167.197 201.5,170.5C 203.945,174.474 202.612,176.807 197.5,177.5C 198.479,175.855 199.812,174.521 201.5,173.5C 196.544,172.506 191.544,172.173 186.5,172.5C 186.5,172.167 186.5,171.833 186.5,171.5C 187.167,171.5 187.5,171.167 187.5,170.5C 188.167,170.5 188.5,170.167 188.5,169.5C 189.833,169.167 189.833,168.833 188.5,168.5C 191.529,165.141 194.529,161.808 197.5,158.5C 198.167,158.5 198.5,158.833 198.5,159.5C 189.938,168.214 191.938,170.714 204.5,167C 205.71,165.961 206.71,164.794 207.5,163.5C 210.5,161.167 213.167,158.5 215.5,155.5 Z"/></g>
<g><path style="opacity:1" fill="#c19666" d="M 207.5,163.5 C 204.296,165.295 200.796,166.629 197,167.5C 196.308,166.975 195.808,166.308 195.5,165.5C 196.648,163.851 197.981,162.351 199.5,161C 202.119,160.849 204.453,160.015 206.5,158.5C 207.452,160.045 207.785,161.712 207.5,163.5 Z"/></g>
<g><path style="opacity:0.318" fill="#cccccc" d="M 69.5,167.5 C 71.0269,167.427 72.0269,168.094 72.5,169.5C 70.9731,169.573 69.9731,168.906 69.5,167.5 Z"/></g>
<g><path style="opacity:0.055" fill="#fbf8f5" d="M 89.5,165.5 C 96.0373,167.766 102.371,170.6 108.5,174C 109.381,174.708 110.047,175.542 110.5,176.5C 103.335,173.085 96.3346,169.418 89.5,165.5 Z"/></g>
<g><path style="opacity:0.008" fill="#f8f7f7" d="M 43.5,169.5 C 44.5,169.833 45.1667,170.5 45.5,171.5C 44.8333,171.5 44.1667,171.5 43.5,171.5C 43.5,170.833 43.5,170.167 43.5,169.5 Z"/></g>
<g><path style="opacity:0.925" fill="#d7cfc7" d="M 190.5,160.5 C 190.5,161.167 190.833,161.5 191.5,161.5C 187.441,166.562 182.774,170.895 177.5,174.5C 177.633,172.028 177.8,169.361 178,166.5C 178.383,165.944 178.883,165.611 179.5,165.5C 178.962,167.117 178.629,168.784 178.5,170.5C 179.552,170.649 180.552,170.483 181.5,170C 184.586,166.765 187.586,163.598 190.5,160.5 Z"/></g>
<g><path style="opacity:1" fill="#c4ad95" d="M 171.5,175.5 C 171.799,173.396 171.466,171.396 170.5,169.5C 166.958,171.608 165.458,174.274 166,177.5C 167.406,176.586 168.906,175.92 170.5,175.5C 169.181,177.734 167.181,179.068 164.5,179.5C 163.548,177.955 163.215,176.288 163.5,174.5C 164.431,170.402 166.931,167.735 171,166.5C 174.047,169.324 174.214,172.324 171.5,175.5 Z"/></g>
<g><path style="opacity:0.973" fill="#b8a081" d="M 68.5,179.5 C 66.2972,179.396 64.2972,178.73 62.5,177.5C 60.0458,174.378 59.5458,171.045 61,167.5C 66.1983,169.856 68.6983,173.856 68.5,179.5 Z"/></g>
<g><path style="opacity:0.839" fill="#9e9c9f" d="M 134.5,171.5 C 134.027,172.906 133.027,173.573 131.5,173.5C 131.973,172.094 132.973,171.427 134.5,171.5 Z"/></g>
<g><path style="opacity:0.161" fill="#e1e1df" d="M 151.5,171.5 C 150.22,172.931 148.553,173.598 146.5,173.5C 147.78,172.069 149.447,171.402 151.5,171.5 Z"/></g>
<g><path style="opacity:1" fill="#b08555" d="M 171.5,175.5 C 171.167,175.5 170.833,175.5 170.5,175.5C 168.906,175.92 167.406,176.586 166,177.5C 165.458,174.274 166.958,171.608 170.5,169.5C 171.466,171.396 171.799,173.396 171.5,175.5 Z"/></g>
<g><path style="opacity:0.804" fill="#a3a1a3" d="M 131.5,173.5 C 131.027,174.906 130.027,175.573 128.5,175.5C 128.973,174.094 129.973,173.427 131.5,173.5 Z"/></g>
<g><path style="opacity:0.18" fill="#dadbd9" d="M 146.5,173.5 C 145.22,174.931 143.553,175.598 141.5,175.5C 142.78,174.069 144.447,173.402 146.5,173.5 Z"/></g>
<g><path style="opacity:1" fill="#b9936a" d="M 186.5,172.5 C 191.544,172.173 196.544,172.506 201.5,173.5C 199.812,174.521 198.479,175.855 197.5,177.5C 193.672,179.579 189.672,181.412 185.5,183C 181.848,183.499 178.182,183.665 174.5,183.5C 173.438,182.425 173.438,181.425 174.5,180.5C 178.765,178.235 182.765,175.568 186.5,172.5 Z"/></g>
<g><path style="opacity:0.133" fill="#dfe0de" d="M 84.5,174.5 C 86.5529,174.402 88.2196,175.069 89.5,176.5C 87.4471,176.598 85.7804,175.931 84.5,174.5 Z"/></g>
<g><path style="opacity:1" fill="#1f201f" d="M 167.5,156.5 C 168.978,156.238 170.311,156.571 171.5,157.5C 169.554,159.085 168.221,161.085 167.5,163.5C 162.484,166.674 157.151,169.341 151.5,171.5C 149.447,171.402 147.78,172.069 146.5,173.5C 144.447,173.402 142.78,174.069 141.5,175.5C 140.486,176.674 139.153,177.34 137.5,177.5C 134.386,177.555 132.052,178.888 130.5,181.5C 128.973,181.427 127.973,182.094 127.5,183.5C 123.812,185.188 121.145,187.855 119.5,191.5C 118.488,192.872 117.488,194.205 116.5,195.5C 115.833,195.5 115.167,195.5 114.5,195.5C 113.833,195.5 113.5,195.167 113.5,194.5C 113.573,192.973 112.906,191.973 111.5,191.5C 111.262,189.596 110.262,188.262 108.5,187.5C 107.738,185.738 106.404,184.738 104.5,184.5C 104.027,183.094 103.027,182.427 101.5,182.5C 101.027,181.094 100.027,180.427 98.5,180.5C 97.5084,180.672 96.8417,180.338 96.5,179.5C 95.8333,178.833 95.1667,178.167 94.5,177.5C 95.3784,174.15 96.8784,173.817 99,176.5C 99.6708,175.748 100.504,175.414 101.5,175.5C 103.819,175.992 105.819,176.992 107.5,178.5C 107.973,179.906 108.973,180.573 110.5,180.5C 112.167,181.5 113.5,182.833 114.5,184.5C 117.581,185.194 119.914,183.861 121.5,180.5C 122.262,178.738 123.596,177.738 125.5,177.5C 127.027,177.573 128.027,176.906 128.5,175.5C 130.027,175.573 131.027,174.906 131.5,173.5C 133.027,173.573 134.027,172.906 134.5,171.5C 145.312,166.264 156.312,161.264 167.5,156.5 Z"/></g>
<g><path style="opacity:0.89" fill="#898b8f" d="M 128.5,175.5 C 128.027,176.906 127.027,177.573 125.5,177.5C 125.973,176.094 126.973,175.427 128.5,175.5 Z"/></g>
<g><path style="opacity:0.308" fill="#dcd6ce" d="M 185.5,171.5 C 185.5,172.167 185.833,172.5 186.5,172.5C 182.765,175.568 178.765,178.235 174.5,180.5C 173.438,181.425 173.438,182.425 174.5,183.5C 172.883,182.962 171.216,182.629 169.5,182.5C 174.796,178.846 180.129,175.179 185.5,171.5 Z"/></g>
<g><path style="opacity:1" fill="#bb8f64" d="M 43.5,172.5 C 44.1667,172.5 44.8333,172.5 45.5,172.5C 45.5,172.833 45.5,173.167 45.5,173.5C 48.9059,177.048 52.9059,179.882 57.5,182C 52.1935,183.84 46.8602,183.84 41.5,182C 37.1118,179.477 32.7785,176.977 28.5,174.5C 33.0557,172.558 38.0557,171.892 43.5,172.5 Z"/></g>
<g><path style="opacity:0.05" fill="#f2f0ed" d="M 62.5,177.5 C 64.2972,178.73 66.2972,179.396 68.5,179.5C 68.4431,180.609 68.1098,181.609 67.5,182.5C 65.6316,181.737 63.9649,180.737 62.5,179.5C 62.5,178.833 62.5,178.167 62.5,177.5 Z"/></g>
<g><path style="opacity:0.033" fill="#eaeaea" d="M 91.5,177.5 C 92.5,177.5 93.5,177.5 94.5,177.5C 95.1667,178.167 95.8333,178.833 96.5,179.5C 94.4471,179.598 92.7804,178.931 91.5,177.5 Z"/></g>
<g><path style="opacity:0.004" fill="#dfdedf" d="M 107.5,178.5 C 109.027,178.427 110.027,179.094 110.5,180.5C 108.973,180.573 107.973,179.906 107.5,178.5 Z"/></g>
<g><path style="opacity:1" fill="#ccbfb1" d="M 81.5,188.5 C 78.5568,188.02 75.8902,187.02 73.5,185.5C 74.2389,185.631 74.9056,185.464 75.5,185C 72.6026,183.285 71.2693,180.785 71.5,177.5C 74.6516,176.959 77.1516,177.959 79,180.5C 80.4499,183.324 81.2833,185.991 81.5,188.5 Z"/></g>
<g><path style="opacity:0.008" fill="#ececeb" d="M 137.5,177.5 C 135.337,179.083 133.004,180.416 130.5,181.5C 132.052,178.888 134.386,177.555 137.5,177.5 Z"/></g>
<g><path style="opacity:0.072" fill="#e9e6e1" d="M 163.5,174.5 C 163.215,176.288 163.548,177.955 164.5,179.5C 167.181,179.068 169.181,177.734 170.5,175.5C 170.833,175.5 171.167,175.5 171.5,175.5C 171.328,176.492 171.662,177.158 172.5,177.5C 169.669,179.417 166.669,181.083 163.5,182.5C 163.158,183.338 162.492,183.672 161.5,183.5C 161.068,180.123 161.735,177.123 163.5,174.5 Z"/></g>
<g><path style="opacity:0.086" fill="#f5f1ec" d="M 45.5,172.5 C 45.5,172.167 45.5,171.833 45.5,171.5C 51.1273,175.986 57.1273,179.986 63.5,183.5C 62.1779,183.67 61.0113,183.337 60,182.5C 47.6711,186.888 37.1711,184.221 28.5,174.5C 32.7785,176.977 37.1118,179.477 41.5,182C 46.8602,183.84 52.1935,183.84 57.5,182C 52.9059,179.882 48.9059,177.048 45.5,173.5C 46.8333,173.167 46.8333,172.833 45.5,172.5 Z"/></g>
<g><path style="opacity:1" fill="#363530" d="M 24.5,133.5 C 25.1667,134.5 25.8333,135.5 26.5,136.5C 26.7215,139.067 27.3882,141.401 28.5,143.5C 29.3382,143.842 29.6716,144.508 29.5,145.5C 30.7589,149.025 32.7589,152.025 35.5,154.5C 35.7376,156.404 36.7376,157.738 38.5,158.5C 39.4013,159.29 40.0679,160.29 40.5,161.5C 44.9012,168.236 50.5678,173.57 57.5,177.5C 59.2838,177.893 60.9505,178.559 62.5,179.5C 63.9649,180.737 65.6316,181.737 67.5,182.5C 69.8185,182.992 71.8185,183.992 73.5,185.5C 75.8902,187.02 78.5568,188.02 81.5,188.5C 82.5,188.5 83.5,188.5 84.5,188.5C 84.5,188.833 84.5,189.167 84.5,189.5C 89.0787,192.137 94.0787,193.804 99.5,194.5C 99.5,195.167 99.1667,195.5 98.5,195.5C 95.4021,195.244 92.4021,194.578 89.5,193.5C 89.1667,193.5 88.8333,193.5 88.5,193.5C 79.9604,190.935 71.627,187.602 63.5,183.5C 57.1273,179.986 51.1273,175.986 45.5,171.5C 45.1667,170.5 44.5,169.833 43.5,169.5C 43.1667,168.5 42.5,167.833 41.5,167.5C 41.5,167.167 41.5,166.833 41.5,166.5C 40.2427,163.573 38.2427,161.239 35.5,159.5C 35.2624,157.596 34.2624,156.262 32.5,155.5C 32.1667,155.5 31.8333,155.5 31.5,155.5C 30.3995,154.395 29.7329,153.062 29.5,151.5C 27.8139,147.424 26.1472,143.424 24.5,139.5C 23.596,138.791 23.2627,137.791 23.5,136.5C 24.404,135.791 24.7373,134.791 24.5,133.5 Z"/></g>
<g><path style="opacity:0.38" fill="#d0d0ce" d="M 98.5,180.5 C 100.027,180.427 101.027,181.094 101.5,182.5C 99.9731,182.573 98.9731,181.906 98.5,180.5 Z"/></g>
<g><path style="opacity:1" fill="#9e8665" d="M 154.5,178.5 C 155.675,178.281 156.675,178.614 157.5,179.5C 156.533,181.79 155.2,183.79 153.5,185.5C 152.233,186.087 151.233,186.087 150.5,185.5C 151.174,183.805 151.841,182.138 152.5,180.5C 152.5,179.167 153.167,178.5 154.5,178.5 Z"/></g>
<g><path style="opacity:0.053" fill="#f2f0ee" d="M 154.5,178.5 C 159.487,177.001 160.487,178.501 157.5,183C 157.57,183.765 157.903,184.265 158.5,184.5C 158.158,185.338 157.492,185.672 156.5,185.5C 156.158,186.338 155.492,186.672 154.5,186.5C 154.5,185.833 154.167,185.5 153.5,185.5C 155.2,183.79 156.533,181.79 157.5,179.5C 156.675,178.614 155.675,178.281 154.5,178.5 Z"/></g>
<g><path style="opacity:0.714" fill="#b3b3b5" d="M 121.5,180.5 C 119.914,183.861 117.581,185.194 114.5,184.5C 116.833,183.167 119.167,181.833 121.5,180.5 Z"/></g>
<g><path style="opacity:0.024" fill="#ededed" d="M 130.5,181.5 C 130.027,182.906 129.027,183.573 127.5,183.5C 127.973,182.094 128.973,181.427 130.5,181.5 Z"/></g>
<g><path style="opacity:0.024" fill="#fdfefd" d="M 159.5,183.5 C 158.833,182.167 158.833,182.167 159.5,183.5 Z"/></g>
<g><path style="opacity:0.427" fill="#cecdcc" d="M 101.5,182.5 C 103.027,182.427 104.027,183.094 104.5,184.5C 102.973,184.573 101.973,183.906 101.5,182.5 Z"/></g>
<g><path style="opacity:0.698" fill="#a6a6a3" d="M 104.5,184.5 C 106.404,184.738 107.738,185.738 108.5,187.5C 106.596,187.262 105.262,186.262 104.5,184.5 Z"/></g>
<g><path style="opacity:0.057" fill="#e6e2de" d="M 88.5,181.5 C 87.5,181.5 86.5,181.5 85.5,181.5C 85.6901,187.204 88.6901,190.704 94.5,192C 96.3869,192.78 98.0536,192.613 99.5,191.5C 100.404,192.209 100.737,193.209 100.5,194.5C 100.167,194.5 99.8333,194.5 99.5,194.5C 94.0787,193.804 89.0787,192.137 84.5,189.5C 85.8333,189.167 85.8333,188.833 84.5,188.5C 83.833,186.181 83.6664,183.847 84,181.5C 85.6155,180.199 87.1155,180.199 88.5,181.5 Z"/></g>
<g><path style="opacity:0.024" fill="#e0e0df" d="M 127.5,183.5 C 125.215,186.452 122.548,189.118 119.5,191.5C 121.145,187.855 123.812,185.188 127.5,183.5 Z"/></g>
<g><path style="opacity:0.034" fill="#e9e5e1" d="M 152.5,180.5 C 151.841,182.138 151.174,183.805 150.5,185.5C 151.233,186.087 152.233,186.087 153.5,185.5C 154.167,185.5 154.5,185.833 154.5,186.5C 153.22,187.931 151.553,188.598 149.5,188.5C 148.227,185.038 149.227,182.371 152.5,180.5 Z"/></g>
<g><path style="opacity:1" fill="#af9072" d="M 88.5,181.5 C 94.0673,182.734 97.7339,186.067 99.5,191.5C 98.0536,192.613 96.3869,192.78 94.5,192C 88.6901,190.704 85.6901,187.204 85.5,181.5C 86.5,181.5 87.5,181.5 88.5,181.5 Z"/></g>
<g><path style="opacity:0.024" fill="#d2d3d2" d="M 108.5,187.5 C 110.262,188.262 111.262,189.596 111.5,191.5C 109.738,190.738 108.738,189.404 108.5,187.5 Z"/></g>
<g><path style="opacity:1" fill="#ac8f6e" d="M 145.5,185.5 C 141.681,189.993 137.014,191.66 131.5,190.5C 134.205,184.274 138.871,181.108 145.5,181C 146.801,182.616 146.801,184.116 145.5,185.5 Z"/></g>
<g><path style="opacity:1" fill="#b5946e" d="M 63.5,185.5 C 66.4392,186.97 69.4392,188.47 72.5,190C 65.1934,193.286 57.8601,193.286 50.5,190C 49.4019,189.23 49.4019,188.397 50.5,187.5C 54.6306,185.817 58.9639,185.15 63.5,185.5 Z"/></g>
<g><path style="opacity:0.061" fill="#f2efea" d="M 63.5,183.5 C 71.627,187.602 79.9604,190.935 88.5,193.5C 86.7376,194.262 85.7376,195.596 85.5,197.5C 84.5084,197.328 83.8417,197.662 83.5,198.5C 82.8333,198.5 82.5,198.833 82.5,199.5C 77.8215,199.666 73.1548,199.499 68.5,199C 67.2264,198.023 67.2264,197.189 68.5,196.5C 68.5,195.5 68.5,194.5 68.5,193.5C 66.0799,193.292 63.7466,193.626 61.5,194.5C 56.0578,194.43 51.3911,192.596 47.5,189C 48.2438,187.961 49.2438,187.461 50.5,187.5C 49.4019,188.397 49.4019,189.23 50.5,190C 57.8601,193.286 65.1934,193.286 72.5,190C 69.4392,188.47 66.4392,186.97 63.5,185.5C 64.5063,185.062 64.5063,184.396 63.5,183.5 Z"/></g>
<g><path style="opacity:0.044" fill="#f2eeea" d="M 145.5,185.5 C 145.167,186.833 144.833,188.167 144.5,189.5C 142.776,189.461 142.443,189.794 143.5,190.5C 143.158,191.338 142.492,191.672 141.5,191.5C 141.167,190.167 140.833,190.167 140.5,191.5C 137.746,192.946 134.746,193.946 131.5,194.5C 130.646,192.965 130.646,191.632 131.5,190.5C 137.014,191.66 141.681,189.993 145.5,185.5 Z"/></g>
<g><path style="opacity:0.012" fill="#dad9d8" d="M 111.5,191.5 C 112.906,191.973 113.573,192.973 113.5,194.5C 112.094,194.027 111.427,193.027 111.5,191.5 Z"/></g>
<g><path style="opacity:0.073" fill="#f7f5f2" d="M 197.5,177.5 C 193.712,180.935 189.379,183.601 184.5,185.5C 183.969,189.599 181.636,191.599 177.5,191.5C 173.433,194.439 168.933,195.105 164,193.5C 162.97,193.836 162.47,194.503 162.5,195.5C 164.048,195.821 164.715,196.821 164.5,198.5C 159.819,199.762 155.152,199.762 150.5,198.5C 150.027,197.094 149.027,196.427 147.5,196.5C 146.341,194.75 144.674,193.75 142.5,193.5C 151.493,190.052 160.493,186.385 169.5,182.5C 169.389,183.117 169.056,183.617 168.5,184C 170.473,184.495 172.473,184.662 174.5,184.5C 174.5,184.167 174.5,183.833 174.5,183.5C 178.182,183.665 181.848,183.499 185.5,183C 189.672,181.412 193.672,179.579 197.5,177.5 Z M 169.5,182.5 C 171.216,182.629 172.883,182.962 174.5,183.5C 174.5,183.833 174.5,184.167 174.5,184.5C 172.473,184.662 170.473,184.495 168.5,184C 169.056,183.617 169.389,183.117 169.5,182.5 Z"/></g>
<g><path style="opacity:1" fill="#b89268" d="M 177.5,191.5 C 170.476,194.411 163.809,193.744 157.5,189.5C 165.546,184.71 173.88,184.21 182.5,188C 180.767,189.189 179.1,190.356 177.5,191.5 Z"/></g>
<g><path style="opacity:0.204" fill="#e0e1e0" d="M 114.5,195.5 C 115.167,195.5 115.833,195.5 116.5,195.5C 115.452,197.933 114.786,197.933 114.5,195.5 Z"/></g>
<g><path style="opacity:1" fill="#ab8963" d="M 162.5,195.5 C 162.611,196.117 162.944,196.617 163.5,197C 157.548,199.452 152.215,198.452 147.5,194C 152.85,190.499 157.85,190.999 162.5,195.5 Z"/></g>
<g><path style="opacity:0.924" fill="#ae926c" d="M 76.5,191.5 C 79.1667,192.167 81.8333,192.833 84.5,193.5C 84.4386,195.592 83.4386,197.092 81.5,198C 77.8333,198.667 74.1667,198.667 70.5,198C 69.5842,197.722 68.9175,197.222 68.5,196.5C 70.8997,194.306 73.5664,192.639 76.5,191.5 Z"/></g>
<g><path style="opacity:0.069" fill="#e8e2db" d="M 89.5,193.5 C 92.4021,194.578 95.4021,195.244 98.5,195.5C 101.345,196.538 104.012,197.872 106.5,199.5C 104.833,200.167 103.167,200.833 101.5,201.5C 104.129,198.559 103.462,197.893 99.5,199.5C 99.4226,198.25 98.756,197.417 97.5,197C 94.854,196.503 92.1873,196.336 89.5,196.5C 90.8333,195.5 90.8333,194.5 89.5,193.5 Z"/></g>
<g><path style="opacity:0.957" fill="#716d67" d="M 99.5,194.5 C 99.8333,194.5 100.167,194.5 100.5,194.5C 105.814,195.66 110.981,197.327 116,199.5C 117.8,198.68 119.634,198.014 121.5,197.5C 121.5,197.833 121.5,198.167 121.5,198.5C 120.833,199.167 120.167,199.833 119.5,200.5C 119.5,201.167 119.167,201.5 118.5,201.5C 116.833,201.5 115.167,201.5 113.5,201.5C 112.486,200.326 111.153,199.66 109.5,199.5C 108.5,199.5 107.5,199.5 106.5,199.5C 104.012,197.872 101.345,196.538 98.5,195.5C 99.1667,195.5 99.5,195.167 99.5,194.5 Z"/></g>
<g><path style="opacity:1" fill="#ba9e80" d="M 142.5,193.5 C 143.486,195.408 145.152,196.408 147.5,196.5C 147.973,197.906 148.973,198.573 150.5,198.5C 150.833,199.167 151.167,199.833 151.5,200.5C 145.44,203.775 140.106,202.775 135.5,197.5C 137.291,196.83 138.958,196.163 140.5,195.5C 140.5,195.167 140.5,194.833 140.5,194.5C 140.842,193.662 141.508,193.328 142.5,193.5 Z"/></g>
<g><path style="opacity:1" fill="#b39370" d="M 89.5,196.5 C 92.1873,196.336 94.854,196.503 97.5,197C 98.756,197.417 99.4226,198.25 99.5,199.5C 94.3197,203.193 88.653,204.193 82.5,202.5C 81.8843,201.798 81.8843,200.798 82.5,199.5C 83.1667,199.5 83.5,199.167 83.5,198.5C 84.4916,198.672 85.1583,198.338 85.5,197.5C 86.8333,197.167 88.1667,196.833 89.5,196.5 Z"/></g>
<g><path style="opacity:1" fill="#b9976e" d="M 106.5,199.5 C 107.5,199.5 108.5,199.5 109.5,199.5C 108.306,204.7 104.972,207.033 99.5,206.5C 99.5,205.5 99.5,204.5 99.5,203.5C 99.8333,202.5 100.5,201.833 101.5,201.5C 103.167,200.833 104.833,200.167 106.5,199.5 Z"/></g>
<g><path style="opacity:0.041" fill="#f7f5f2" d="M 139.5,194.5 C 139.5,195.167 139.833,195.5 140.5,195.5C 138.958,196.163 137.291,196.83 135.5,197.5C 140.106,202.775 145.44,203.775 151.5,200.5C 152.692,201.566 152.359,202.399 150.5,203C 146.833,203.667 143.167,203.667 139.5,203C 136.626,200.946 133.959,198.779 131.5,196.5C 133.961,195.469 136.627,194.802 139.5,194.5 Z"/></g>
<g><path style="opacity:0.031" fill="#fbfaf7" d="M 99.5,199.5 C 99.5858,200.496 99.2524,201.329 98.5,202C 93.7339,204.31 88.7339,204.977 83.5,204C 82.944,203.617 82.6107,203.117 82.5,202.5C 88.653,204.193 94.3197,203.193 99.5,199.5 Z"/></g>
<g><path style="opacity:1" fill="#c0a07b" d="M 131.5,196.5 C 130.89,197.391 130.557,198.391 130.5,199.5C 132.385,201.053 133.385,203.053 133.5,205.5C 127.174,207.159 124.174,204.826 124.5,198.5C 126.701,197.434 129.035,196.767 131.5,196.5 Z"/></g>
<g><path style="opacity:0.065" fill="#f9f6f3" d="M 109.5,199.5 C 111.153,199.66 112.486,200.326 113.5,201.5C 112.448,201.351 111.448,201.517 110.5,202C 107.061,207.602 102.728,208.602 97.5,205C 98.0442,204.283 98.7109,203.783 99.5,203.5C 99.5,204.5 99.5,205.5 99.5,206.5C 104.972,207.033 108.306,204.7 109.5,199.5 Z"/></g>
<g><path style="opacity:0.041" fill="#efeae3" d="M 121.5,198.5 C 122.5,198.5 123.5,198.5 124.5,198.5C 124.174,204.826 127.174,207.159 133.5,205.5C 133.385,203.053 132.385,201.053 130.5,199.5C 133.069,200.396 135.069,202.062 136.5,204.5C 135.372,206.556 133.538,207.556 131,207.5C 126.401,207.619 123.567,205.453 122.5,201C 121.552,200.517 120.552,200.351 119.5,200.5C 120.167,199.833 120.833,199.167 121.5,198.5 Z"/></g>
<g><path style="opacity:1" fill="#d3c2af" d="M 113.5,201.5 C 115.167,201.5 116.833,201.5 118.5,201.5C 118.5,202.5 118.5,203.5 118.5,204.5C 120.828,206.166 121.828,208.499 121.5,211.5C 121.559,214.109 120.892,216.443 119.5,218.5C 117.5,218.5 115.5,218.5 113.5,218.5C 112.611,216.09 111.945,213.59 111.5,211C 111.757,208.23 112.757,205.73 114.5,203.5C 114.137,202.817 113.804,202.15 113.5,201.5 Z"/></g>
<g><path style="opacity:1" fill="#bf9568" d="M 118.5,204.5 C 119.344,208.099 119.677,211.766 119.5,215.5C 115.76,216.259 114.093,214.759 114.5,211C 114.231,207.682 115.564,205.515 118.5,204.5 Z"/></g>
</svg>
