<?xml version="1.0" encoding="UTF-8" standalone="no"?>
<!-- Created with Inkscape (http://www.inkscape.org/) -->

<svg
   width="159.36987mm"
   height="126.7354mm"
   viewBox="0 0 159.36987 126.7354"
   version="1.1"
   id="svg3871"
   xml:space="preserve"
   inkscape:export-filename="rplogo.png"
   inkscape:export-xdpi="96"
   inkscape:export-ydpi="96"
   xmlns:inkscape="http://www.inkscape.org/namespaces/inkscape"
   xmlns:sodipodi="http://sodipodi.sourceforge.net/DTD/sodipodi-0.dtd"
   xmlns="http://www.w3.org/2000/svg"
   xmlns:svg="http://www.w3.org/2000/svg"><sodipodi:namedview
     id="namedview3873"
     pagecolor="#ffffff"
     bordercolor="#000000"
     borderopacity="0.25"
     inkscape:showpageshadow="2"
     inkscape:pageopacity="0.0"
     inkscape:pagecheckerboard="0"
     inkscape:deskcolor="#d1d1d1"
     inkscape:document-units="mm"
     showgrid="false" /><defs
     id="defs3868"><inkscape:path-effect
       effect="fillet_chamfer"
       id="path-effect8969"
       is_visible="true"
       lpeversion="1"
       nodesatellites_param="F,0,0,1,0,0,0,1 @ F,0,0,1,0,0,0,1 @ F,0,0,1,0,3.5489091,0,1 @ F,0,0,1,0,3.706995,0,1 @ F,0,0,1,0,13.789188,0,1 @ F,0,0,1,0,4.8903023,0,1 @ F,0,0,1,0,4.1769635,0,1 @ F,0,0,1,0,0,0,1 @ F,0,0,1,0,4.3264111,0,1 @ F,0,0,1,0,0,0,1 @ F,0,0,1,0,0,0,1 @ F,0,0,1,0,6.3130839,0,1 @ F,0,0,1,0,2.1601515,0,1 @ F,0,0,1,0,3.7409642,0,1 @ F,0,0,1,0,2.5655612,0,1 @ F,0,0,1,0,3.2425524,0,1 @ F,0,0,1,0,2.6173901,0,1 @ F,0,0,1,0,0,0,1 @ F,0,0,1,0,0,0,1 @ F,0,0,1,0,3.176853,0,1 @ F,0,0,1,0,0,0,1"
       unit="px"
       method="auto"
       mode="F"
       radius="0"
       chamfer_steps="1"
       flexible="false"
       use_knot_distance="true"
       apply_no_radius="true"
       apply_with_radius="true"
       only_selected="false"
       hide_knots="false" /></defs><g
     inkscape:label="Layer 1"
     inkscape:groupmode="layer"
     id="layer1"
     style="display:inline"
     transform="translate(-16.40419,-52.916666)"><path
       style="display:inline;opacity:0.810078;mix-blend-mode:normal;fill:#000000;fill-opacity:1;stroke:none;stroke-width:0.735113;stroke-linecap:round;stroke-linejoin:round;paint-order:stroke fill markers"
       d="m 71.500315,72.194508 h 25.273593 l -5.273191,31.211132 a 3.8318709,3.8318709 142.39418 0 1 -4.125528,3.17776 l -18.7197,-1.70319 a 1.9762585,1.9762585 123.26146 0 0 -1.912936,2.91644 l 23.448143,42.87198 c 3.654342,6.68151 6.74608,6.93511 6.783229,0.5652 0.07506,-12.86952 0.150111,-32.73231 0.225166,-45.86751 0.01543,-2.70074 2.219657,-4.88261 4.920479,-4.87336 l 20.76966,0.0712 a 2.9666935,2.9666935 125.58059 0 0 2.81464,-3.934253 l -6.18908,-17.938689 -15.27046,0.07278 a 5.2165965,5.2165965 39.397715 0 1 -5.146802,-4.227287 l -0.43465,-2.250443 24.295402,-0.0918 13.70545,25.850844 a 4.23111,4.23111 118.23813 0 1 -3.32591,6.192878 l -25.2131,2.46878 a 2.8107985,2.8107985 136.86467 0 0 -2.49977,2.34214 l -8.211529,50.02595 a 1.5504521,1.5504521 166.81003 0 1 -2.789048,0.65365 L 55.913082,105.85949 a 3.8184196,3.8184196 88.195134 0 1 -0.134142,-4.25695 4.3860526,4.3860526 162.25633 0 1 4.083187,-1.30654 l 21.317657,0.22521 a 3.4435837,3.4435837 143.36763 0 0 3.3444,-2.486704 l 2.457677,-8.498128 3.184833,-11.01247 -19.110371,-0.122214 a 1.8352313,1.8352313 60.351881 0 1 -1.57219,-2.762151 l 2.016182,-3.445125"
       id="path8965"
       sodipodi:nodetypes="ccccccccccccccccccccc"
       inkscape:path-effect="#path-effect8969"
       inkscape:original-d="M 71.500315,72.194508 H 96.773908 L 90.9095,106.90496 64.963743,104.54432 96.807468,162.76657 c 0.14061,9.30879 0.28122,-41.52691 0.42183,-62.29036 l 29.836872,0.10221 -7.55138,-21.887252 -19.596822,0.0934 -1.25509,-6.49835 24.295402,-0.0918 16.66258,31.428512 -33.64601,3.2945 -9.167382,55.84914 -42.391557,-58.99049 2.203845,-3.51433 27.177272,0.28711 3.184833,-11.012482 3.184833,-11.01247 -22.287159,-0.14253 3.62078,-6.18696" /><path
       style="opacity:1;fill:none;fill-opacity:1;stroke:#000000;stroke-width:2.64583;stroke-linecap:round;stroke-linejoin:round;stroke-dasharray:none;paint-order:stroke fill markers"
       d="m 54.389065,54.239583 h 84.653365 l 35.40875,61.912497 -35.40875,62.17708 H 54.389065 L 17.727083,116.15208 Z"
       id="path9114"
       sodipodi:nodetypes="ccccccc"
       inkscape:export-filename=".\path9114.svg"
       inkscape:export-xdpi="96"
       inkscape:export-ydpi="96" /></g></svg>
